<svg width="329" height="279" viewBox="0 0 329 279" fill="none" xmlns="http://www.w3.org/2000/svg">
<path d="M327.47 142.591C298.944 140.909 239.218 136.06 222.875 129.232C204.064 121.372 203.009 99.5352 163.743 74.7143M205.64 68.6686C199.697 69.8561 191.878 67.4187 185.731 64.5123M185.731 64.5123C183.35 63.3863 183.057 63.3248 179.788 61.5435C177.954 60.3824 174.943 58.9606 171.766 57.4267M185.731 64.5123C185.92 62.6831 185.6 60.7258 185.265 58.2779M147.994 22.3557C138.188 21.9266 120.585 33.9222 110.851 45.809C105.502 52.3403 95.9933 65.9967 89.4561 71.9342C92.6256 73.5176 101.936 76.7463 110.256 66.6908C116.397 59.2688 130.759 45.3754 138.188 43.1371C138.59 42.9835 138.792 42.8277 139.377 42.68M147.994 22.3557C174.927 29.4266 183.665 46.5754 185.265 58.2779M147.994 22.3557C147.994 22.3557 146.802 22.0588 145.022 21.7619M147.994 22.3557L146.508 22.0588L145.022 21.7619M321.527 84.9968C276.658 95.0907 256.749 93.6063 251.995 89.1531C220.795 54.7153 204.452 24.4338 151.857 2.16797H98.9647C94.8726 21.8438 126.751 18.7138 145.022 21.7619M181.274 47.8871C178.006 46.6996 169.983 44.9184 161.96 43.1371C151.262 40.7621 143.69 41.5906 139.377 42.68M139.377 42.68C128.679 52.6372 122.736 73.1217 112.633 91.825C114.912 94.0021 121.191 95.8626 128.085 85.8875C133.236 78.0697 143.028 62.256 145.168 61.5435M171.766 57.4267C162.594 52.9991 149.56 47.6377 142.645 44.9184C136.702 55.9028 148.687 65.6998 151.857 67.7779C152.056 67.8854 152.254 67.9928 152.451 68.1001M171.766 57.4267L185.265 58.2779M152.451 68.1001L133.731 99.8407C135.712 100.533 142.348 102.513 147.994 95.3876C152.451 88.2356 161.841 74.0883 163.743 74.7143M152.451 68.1001C156.536 70.3229 160.287 72.5302 163.743 74.7143" stroke="#8F3FBA" stroke-width="2.1687" stroke-linecap="round" stroke-linejoin="round"/>
<path d="M1.62598 178.205C10.9268 193.182 27.4507 220.727 33.6842 223.137C54.4627 231.172 102.609 248.549 125.406 262.118C128.078 263.209 136.211 265.511 147.372 265.987C150.539 267.177 159.127 270.748 168.151 275.509C182.102 276.699 211.786 274.021 232.861 277.592C239.391 274.914 236.72 262.416 209.411 260.631C201.891 260.631 186.851 260.631 185.367 260.631C183.19 260.531 178.303 259.5 176.165 254.977M149.45 255.87C158.452 255.566 174.508 254.996 182.102 254.638M211.489 233.724C228.587 227.059 233.653 234.742 232.861 240.099C217.821 244.76 187.445 254.144 186.258 254.382C185.978 254.438 184.442 254.528 182.102 254.638M182.102 254.638C192.194 246.122 216.119 229.565 228.705 224.328C227.815 221.55 223.065 215.044 213.567 218.376C198.131 224.923 184.18 240.099 178.837 235.338M131.046 250.216C143.81 249.323 166.667 246.645 178.243 234.742C182.399 230.775 193.085 223.435 197.834 220.459C198.527 217.087 197.656 211.592 186.258 214.21C184.378 214.607 178.481 217.246 169.932 224.625C166.57 227.229 154.399 229.833 139.655 227.161M96.3165 201.117C109.568 217.434 125.755 224.642 139.655 227.161M139.655 227.161C138.17 222.447 135.914 212.663 138.764 211.235C169.041 214.21 190.71 202.903 188.929 194.571C188.632 192.191 183.646 188.739 163.698 191.595C160.037 191.695 151.053 191.714 144.404 191C131.046 188.917 116.205 179.395 91.864 184.156C85.3336 185.942 73.1634 188.62 66.3361 186.239C59.8058 184.156 54.1659 174.634 42.8861 149.639" stroke="#8F3FBA" stroke-width="2.1687" stroke-linecap="round" stroke-linejoin="round"/>
<path fill-rule="evenodd" clip-rule="evenodd" d="M172.419 104.453C172.798 104.445 173.164 104.594 173.429 104.865C181.522 113.15 193.691 133.212 180.636 157.112C179.437 159.306 177.077 161.5 177.077 161.5C177.077 161.5 178.083 159.422 178.446 158.757C190.185 137.267 179.984 116.416 172.484 107.877C156.759 126.523 159.822 147.453 166.129 158.757C166.498 159.418 167.498 161.5 167.498 161.5C167.498 161.5 165.164 159.306 163.939 157.112C157.108 144.867 153.566 124.967 171.43 104.911C171.682 104.628 172.041 104.462 172.419 104.453ZM141.303 122.161C141.676 121.967 142.117 121.955 142.5 122.127C144.927 123.216 147.925 124.749 150.398 126.394C152.87 128.04 157.265 131.605 157.265 131.605L149.848 128.04C149.848 128.04 145.453 125.846 142.984 125.368C139.498 147.744 153.694 160.777 160.561 165.34C161.24 165.677 165.587 168.357 165.587 168.357C165.587 168.357 160.835 166.985 158.638 165.888C150.191 161.699 135.793 148.085 140.588 123.119C140.667 122.707 140.93 122.354 141.303 122.161ZM137.875 154.026C139.91 153.134 144.08 151.901 144.08 151.901C144.08 151.901 139.68 151.574 137.488 152.175C137.264 152.239 137.074 152.291 136.901 152.339C136.233 152.522 135.813 152.637 134.647 153.099C133.916 153.388 133.198 153.703 132.615 154.026C132.324 154.187 132.036 154.366 131.787 154.561C131.562 154.739 131.253 155.018 131.058 155.409C130.839 155.846 130.898 156.272 130.918 156.403C130.947 156.602 131.004 156.795 131.061 156.961C131.178 157.299 131.359 157.693 131.581 158.114C132.031 158.966 132.718 160.056 133.619 161.263C135.421 163.677 138.138 166.639 141.659 169.155C148.75 174.223 159.037 177.199 171.548 170.551C171.755 170.441 172.041 170.269 172.372 170.062C172.703 170.269 172.989 170.441 173.196 170.551C185.706 177.199 195.994 174.223 203.085 169.155C206.606 166.639 209.322 163.677 211.124 161.263C212.025 160.056 212.712 158.966 213.162 158.114C213.385 157.693 213.566 157.299 213.683 156.961C213.74 156.795 213.797 156.602 213.826 156.403C213.845 156.272 213.905 155.846 213.686 155.409C213.491 155.018 213.182 154.739 212.956 154.561C212.707 154.366 212.42 154.187 212.129 154.026C211.545 153.703 210.828 153.388 210.097 153.099C208.931 152.637 208.511 152.522 207.843 152.339C207.67 152.291 207.48 152.239 207.256 152.175C205.064 151.574 200.664 151.901 200.664 151.901C200.664 151.901 204.833 153.134 206.869 154.026C208.904 154.918 210.908 156.487 210.908 156.487C210.908 156.487 210.801 156.706 210.733 156.834C210.361 157.537 209.756 158.507 208.922 159.624C207.255 161.858 204.734 164.604 201.486 166.925C195.04 171.532 187.204 174.116 174.295 169.179C174.135 169.126 173.404 168.846 173.404 168.846L172.378 168.441H172.372L171.34 168.846C171.34 168.846 170.609 169.126 170.449 169.179C157.539 174.116 149.703 171.532 143.257 166.925C140.01 164.604 137.489 161.858 135.822 159.624C134.988 158.507 134.382 157.537 134.011 156.834C133.943 156.706 133.836 156.487 133.836 156.487C133.836 156.487 135.84 154.918 137.875 154.026ZM202.244 122.127C202.627 121.955 203.068 121.967 203.44 122.161C203.813 122.354 204.077 122.707 204.156 123.119C208.951 148.085 194.553 161.699 186.106 165.888C183.908 166.985 179.156 168.357 179.156 168.357C179.156 168.357 183.504 165.677 184.183 165.34C191.05 160.777 205.245 147.744 201.76 125.368C199.29 125.846 194.895 128.04 194.895 128.04L187.479 131.605C187.479 131.605 191.874 128.04 194.346 126.394C196.818 124.749 199.817 123.216 202.244 122.127Z" fill="#F9DE15"/>
</svg>
