<svg width="234" height="101" viewBox="0 0 234 101" fill="none" xmlns="http://www.w3.org/2000/svg">
<path d="M72.8357 100.086C71.5732 100.086 70.6341 99.6395 70.0182 98.7465C69.4332 97.8227 69.1406 96.7142 69.1406 95.4209C69.1406 94.22 69.3716 92.9729 69.8335 91.6796C70.3261 90.2632 71.0036 88.9699 71.8657 87.7998C72.7587 86.6297 73.7287 85.6905 74.7756 84.9823C75.8534 84.2433 76.9157 83.8738 77.9626 83.8738C79.2251 83.8738 80.1489 84.3049 80.7339 85.1671C81.3498 86.0292 81.6577 87.1224 81.6577 88.4464C81.6577 89.3702 81.5038 90.3402 81.1958 91.3563C80.8879 92.3725 80.4722 93.3732 79.9487 94.3586C80.349 94.7589 80.9187 94.959 81.6577 94.959C82.5199 94.959 83.2589 94.6819 83.8748 94.1276C84.4906 93.5734 85.0911 92.588 85.6761 91.1716C86.0456 91.1716 86.2304 91.3101 86.2304 91.5873C85.6453 93.0037 84.9679 94.0506 84.1981 94.7281C83.4591 95.3747 82.5045 95.6826 81.3344 95.6519C80.6262 95.6519 80.0411 95.4517 79.5792 95.0514C78.717 96.4678 77.6855 97.6687 76.4846 98.6541C75.3145 99.6087 74.0982 100.086 72.8357 100.086ZM73.4823 99.0698C74.1906 99.0698 74.8988 98.7773 75.607 98.1922C76.3152 97.5764 76.9619 96.8835 77.5469 96.1137C78.132 95.3439 78.5477 94.6819 78.794 94.1276C78.3014 93.2346 78.0088 92.5726 77.9164 92.1415C77.8549 91.6796 77.8241 91.3409 77.8241 91.1254C77.8241 90.5403 77.978 90.0938 78.286 89.7859C78.5939 89.478 78.9018 89.324 79.2097 89.324C79.6408 89.324 80.0103 89.5088 80.3183 89.8783C80.3798 89.5396 80.426 89.2316 80.4568 88.9545C80.4876 88.6466 80.503 88.3541 80.503 88.0769C80.503 87.2763 80.349 86.6297 80.0411 86.137C79.764 85.6135 79.3175 85.3518 78.7017 85.3518C78.055 85.3518 77.3776 85.6289 76.6694 86.1832C75.9611 86.7375 75.2837 87.4765 74.6371 88.4002C74.0212 89.324 73.4823 90.3556 73.0205 91.4949C72.6202 92.4494 72.3122 93.3578 72.0967 94.22C71.8811 95.0514 71.7734 95.8212 71.7734 96.5294C71.7734 97.2992 71.9119 97.9151 72.1891 98.377C72.4662 98.8389 72.8973 99.0698 73.4823 99.0698Z" fill="#F9DE15"/>
<path d="M87.0105 100.086C86.6718 100.086 86.2561 100.009 85.7634 99.855C85.3016 99.701 84.8859 99.4239 84.5164 99.0236C84.1776 98.5925 84.0083 97.9613 84.0083 97.1299C84.0083 96.3293 84.27 95.4055 84.7935 94.3586C85.317 93.3116 85.7788 92.3879 86.1791 91.5873C85.8404 91.5873 85.6711 91.4487 85.6711 91.1716C85.7019 91.0792 85.8404 90.7867 86.0868 90.294C86.3331 89.8013 86.6256 89.2162 86.9643 88.5388C87.3031 87.8614 87.6264 87.2147 87.9343 86.5989C88.273 85.9523 88.5348 85.4596 88.7195 85.1209C89.089 84.4434 89.6741 84.1047 90.4747 84.1047H93.3384C92.8149 84.505 92.3376 84.9515 91.9065 85.4442C91.5062 85.9061 90.9981 86.7683 90.3823 88.0307C90.3823 88.0307 90.2745 88.2463 90.059 88.6774C89.8434 89.1085 89.5663 89.6627 89.2276 90.3402C88.9197 90.9868 88.5963 91.6488 88.2576 92.3263C87.9497 93.0037 87.688 93.5734 87.4724 94.0353C87.0721 94.8974 86.8104 95.5903 86.6872 96.1137C86.5641 96.6064 86.5025 97.0683 86.5025 97.4994C86.5025 98.5155 86.8412 99.0236 87.5186 99.0236C88.2576 99.0236 89.1506 98.4232 90.1975 97.2223C91.0597 96.2061 91.9065 94.9898 92.7379 93.5734C93.5693 92.1569 94.3545 90.6943 95.0935 89.1855C95.8633 87.6766 96.5408 86.3218 97.1258 85.1209C97.4645 84.4434 98.065 84.1047 98.9272 84.1047H101.468C100.79 84.659 100.097 85.4904 99.3891 86.5989C98.7116 87.7074 97.9572 89.1239 97.1258 90.8482C96.9103 91.3101 96.6332 91.8952 96.2944 92.6034C95.9557 93.3116 95.6478 94.066 95.3707 94.8666C95.1243 95.6672 95.0012 96.4678 95.0012 97.2684C95.0012 98.3462 95.3861 98.885 96.1559 98.885C97.2028 98.885 98.219 98.1614 99.2043 96.7142C100.19 95.2669 101.16 93.4194 102.114 91.1716C102.361 91.1716 102.499 91.187 102.53 91.2178C102.591 91.2485 102.638 91.3717 102.668 91.5873C102.33 92.4187 101.914 93.327 101.421 94.3124C100.959 95.2669 100.421 96.1907 99.8048 97.0837C99.2197 97.9767 98.5577 98.7003 97.8187 99.2546C97.1104 99.8088 96.3252 100.086 95.463 100.086C94.6932 100.086 94.062 99.8088 93.5693 99.2546C93.0766 98.6695 92.8303 97.8535 92.8303 96.8066C92.8303 95.9752 92.9843 95.0822 93.2922 94.1276C92.7687 95.0514 92.1683 95.9752 91.4908 96.8989C90.8134 97.8227 90.0898 98.5925 89.32 99.2084C88.5502 99.7934 87.7803 100.086 87.0105 100.086ZM101.421 76.9455C101.729 76.9147 101.914 76.9917 101.976 77.1764C102.037 77.3612 102.068 77.5151 102.068 77.6383C101.575 78.5005 100.836 79.3011 99.851 80.0401C98.8964 80.7483 97.7725 81.1025 96.4792 81.1025C95.2783 81.1025 94.2929 80.7637 93.5231 80.0863C92.7533 79.3781 92.3684 78.5467 92.3684 77.5921C92.3684 76.8839 92.5532 76.2835 92.9227 75.7908C93.323 75.2981 93.831 75.0518 94.4469 75.0518C94.9396 75.0518 95.2783 75.1903 95.463 75.4675C95.6786 75.7446 95.7864 76.0063 95.7864 76.2527C95.7864 76.5914 95.6478 76.8685 95.3707 77.0841C94.8164 77.392 94.5393 77.8231 94.5393 78.3773C94.5393 78.87 94.6932 79.2857 95.0012 79.6244C95.3399 79.9631 95.8941 80.1325 96.6639 80.1325C97.6493 80.1325 98.5731 79.84 99.4353 79.2549C100.297 78.6699 100.959 77.9001 101.421 76.9455Z" fill="#F9DE15"/>
<path d="M109.243 97.9613C109.243 98.2692 109.305 98.5617 109.428 98.8389C109.582 99.0852 109.828 99.2084 110.167 99.2084C110.783 99.2084 111.414 98.885 112.061 98.2384C112.707 97.561 113.369 96.6988 114.047 95.6519C114.755 94.5741 115.448 93.4656 116.125 92.3263C117.203 90.5095 118.142 89.0007 118.943 87.7998C119.774 86.5989 120.544 85.7059 121.252 85.1209C121.714 84.7206 122.114 84.4742 122.453 84.3818C122.792 84.2587 123.13 84.1971 123.469 84.1971H123.792C125.055 84.1971 125.409 84.7821 124.855 85.9523L123.192 89.4164C122.915 89.9707 122.576 90.6635 122.176 91.4949C121.806 92.2955 121.437 93.1269 121.067 93.9891C120.698 94.8205 120.405 95.6211 120.19 96.3909C119.974 97.1299 119.897 97.7303 119.959 98.1922C120.02 98.6541 120.298 98.885 120.79 98.885C121.191 98.885 121.668 98.5463 122.222 97.8689C122.807 97.1607 123.423 96.2677 124.07 95.19C124.747 94.1122 125.424 92.9729 126.102 91.772C126.81 90.5711 127.503 89.4318 128.18 88.3541C128.889 87.2763 129.551 86.4141 130.167 85.7675C130.32 85.6135 130.659 85.321 131.183 84.8899C131.706 84.428 132.214 84.1971 132.707 84.1971H133.03C133.584 84.1971 133.969 84.3357 134.185 84.6128C134.4 84.8591 134.354 85.3056 134.046 85.9523L132.43 89.4164C132.153 89.9707 131.814 90.6635 131.414 91.4949C131.044 92.2955 130.675 93.1269 130.305 93.9891C129.966 94.8205 129.689 95.6211 129.474 96.3909C129.289 97.1299 129.227 97.7303 129.289 98.1922C129.381 98.6541 129.689 98.885 130.213 98.885C130.983 98.885 131.737 98.4847 132.476 97.6841C133.246 96.8835 133.969 95.8982 134.647 94.7281C135.324 93.5272 135.925 92.3417 136.448 91.1716C136.571 91.1716 136.694 91.2178 136.818 91.3101C136.941 91.3717 137.002 91.4641 137.002 91.5873C136.448 92.9729 135.802 94.3124 135.062 95.6057C134.354 96.8989 133.538 97.9613 132.615 98.7927C131.691 99.6241 130.628 100.04 129.427 100.04C128.411 100.04 127.719 99.7318 127.349 99.116C126.98 98.5001 126.856 97.6841 126.98 96.668C127.133 95.6211 127.441 94.4663 127.903 93.2039C128.396 91.9106 128.981 90.6019 129.658 89.2778C130.336 87.9538 131.029 86.7067 131.737 85.5366C131.86 85.321 131.86 85.2132 131.737 85.2132C131.645 85.2132 131.444 85.3826 131.136 85.7213C130.829 86.06 130.644 86.2602 130.582 86.3218C129.782 87.2147 129.027 88.2617 128.319 89.4626C127.642 90.6327 126.964 91.8336 126.287 93.0653C125.64 94.297 124.978 95.4517 124.301 96.5294C123.623 97.5764 122.915 98.4232 122.176 99.0698C121.437 99.7164 120.621 100.04 119.728 100.04C118.743 100.04 118.111 99.6395 117.834 98.8389C117.588 98.0075 117.619 96.8989 117.927 95.5133C118.265 94.1276 118.835 92.5726 119.636 90.8482C120.436 89.1239 121.391 87.3533 122.499 85.5366C122.622 85.321 122.607 85.2132 122.453 85.2132C122.299 85.2132 121.976 85.4596 121.483 85.9523C121.144 86.291 120.806 86.6759 120.467 87.107C120.159 87.5381 119.743 88.1847 119.22 89.0469C118.696 89.8783 117.957 91.1254 117.003 92.7882C116.295 94.0199 115.556 95.2054 114.786 96.3447C114.047 97.484 113.262 98.4232 112.43 99.1622C111.599 99.8704 110.69 100.225 109.705 100.225C108.966 100.225 108.304 100.009 107.719 99.5779C107.134 99.116 106.841 98.454 106.841 97.5918C106.841 97.0683 106.964 96.4986 107.211 95.8828C107.426 95.2669 107.75 94.7435 108.181 94.3124C108.643 93.8813 109.197 93.6965 109.844 93.7581C110.275 93.7889 110.66 93.9583 110.998 94.2662C110.444 94.7897 110.013 95.4055 109.705 96.1137C109.397 96.822 109.243 97.4378 109.243 97.9613Z" fill="#F9DE15"/>
<path d="M146.483 100.225C145.775 100.225 145.144 100.024 144.59 99.6241C144.066 99.2238 143.804 98.4078 143.804 97.1761C143.804 96.6526 143.835 96.1599 143.897 95.698C143.989 95.2362 144.097 94.7435 144.22 94.22C143.943 94.6819 143.558 95.2516 143.065 95.929C142.573 96.6064 142.018 97.2684 141.403 97.9151C140.818 98.5617 140.202 99.1006 139.555 99.5317C138.939 99.9628 138.354 100.178 137.8 100.178C136.999 100.178 136.353 99.8242 135.86 99.116C135.367 98.377 135.121 97.4224 135.121 96.2523C135.121 94.9898 135.413 93.635 135.999 92.1877C136.584 90.7405 137.384 89.3548 138.4 88.0307C139.416 86.7067 140.587 85.6289 141.911 84.7975C143.235 83.9661 144.62 83.5505 146.068 83.5505C146.776 83.5505 147.453 83.6736 148.1 83.92C148.747 84.1355 149.316 84.505 149.809 85.0285C150.024 85.244 150.132 85.4904 150.132 85.7675C150.132 85.9523 150.055 86.1062 149.901 86.2294C149.747 86.3526 149.547 86.3833 149.301 86.3218C148.962 85.244 148.239 84.7052 147.13 84.7052C146.607 84.7052 146.006 84.8745 145.329 85.2132C144.497 85.6443 143.604 86.3372 142.65 87.2917C141.726 88.2155 140.848 89.2778 140.017 90.4787C139.216 91.6488 138.554 92.8344 138.031 94.0353C137.507 95.2362 137.246 96.3293 137.246 97.3146C137.246 98.3308 137.631 98.8389 138.4 98.8389C139.078 98.8389 139.771 98.5155 140.479 97.8689C141.218 97.2223 141.911 96.4217 142.557 95.4671C143.235 94.4817 143.851 93.5118 144.405 92.5572C144.959 91.6027 145.39 90.8328 145.698 90.2478C146.16 89.4164 146.591 88.7236 146.991 88.1693C147.392 87.615 147.961 87.3379 148.7 87.3379C149.039 87.3379 149.378 87.3841 149.717 87.4765C150.055 87.5689 150.409 87.5843 150.779 87.5227C149.855 88.4464 149.039 89.5396 148.331 90.8021C147.653 92.0645 147.13 93.3116 146.76 94.5433C146.391 95.7442 146.206 96.7604 146.206 97.5918C146.206 98.5155 146.514 98.9774 147.13 98.9774C147.623 98.9774 148.146 98.7003 148.7 98.146C149.285 97.5918 149.84 96.8989 150.363 96.0675C150.917 95.2054 151.426 94.3432 151.887 93.481C152.349 92.588 152.719 91.8182 152.996 91.1716C153.15 91.1716 153.273 91.187 153.365 91.2178C153.489 91.2485 153.55 91.3717 153.55 91.5873C153.519 91.7104 153.458 91.849 153.365 92.003C153.304 92.1261 153.196 92.3571 153.042 92.6958C152.796 93.1885 152.457 93.8505 152.026 94.6819C151.595 95.5133 151.087 96.3601 150.502 97.2223C149.917 98.0537 149.285 98.7619 148.608 99.3469C147.931 99.932 147.222 100.225 146.483 100.225Z" fill="#F9DE15"/>
<path d="M156.987 100.271C155.293 100.271 154.03 99.8242 153.199 98.9312C152.398 98.0383 151.998 96.8374 151.998 95.3285C151.998 94.6203 152.137 93.8043 152.414 92.8805C152.691 91.9568 153.061 91.0176 153.522 90.063C153.984 89.1085 154.492 88.2617 155.047 87.5227C155.94 86.3218 156.925 85.398 158.003 84.7514C159.08 84.0739 160.174 83.7352 161.282 83.7352C162.452 83.7352 163.284 83.9969 163.776 84.5204C164.3 85.0131 164.561 85.5981 164.561 86.2756C164.561 86.9222 164.408 87.5073 164.1 88.0307C163.792 88.5234 163.438 88.9237 163.037 89.2316C162.668 89.5396 162.344 89.6935 162.067 89.6935C161.821 89.6935 161.605 89.6012 161.421 89.4164C161.667 89.1085 161.929 88.739 162.206 88.3079C162.483 87.8768 162.683 87.4611 162.806 87.0608C162.929 86.6913 162.991 86.3218 162.991 85.9523C162.991 85.1517 162.622 84.7514 161.883 84.7514C160.99 84.7514 160.112 85.1209 159.25 85.8599C158.418 86.5989 157.649 87.5535 156.94 88.7236C156.263 89.8629 155.709 91.0792 155.278 92.3725C154.877 93.635 154.677 94.8051 154.677 95.8828C154.677 96.8681 154.877 97.6841 155.278 98.3308C155.709 98.9774 156.401 99.3007 157.356 99.3007C158.619 99.3007 159.727 98.9004 160.682 98.0998C161.636 97.2684 162.483 96.2369 163.222 95.0052C163.961 93.7427 164.608 92.4648 165.162 91.1716C165.285 91.1716 165.408 91.2024 165.531 91.2639C165.655 91.2947 165.716 91.4025 165.716 91.5873C165.1 93.1269 164.377 94.5587 163.545 95.8828C162.714 97.2069 161.759 98.2692 160.682 99.0698C159.635 99.8704 158.403 100.271 156.987 100.271Z" fill="#F9DE15"/>
<path d="M169.12 100.271C167.426 100.271 166.164 99.8242 165.333 98.9312C164.532 98.0383 164.132 96.8374 164.132 95.3285C164.132 94.6203 164.27 93.8043 164.547 92.8805C164.825 91.9568 165.194 91.0176 165.656 90.063C166.118 89.1085 166.626 88.2617 167.18 87.5227C168.073 86.3218 169.058 85.398 170.136 84.7514C171.214 84.0739 172.307 83.7352 173.416 83.7352C174.586 83.7352 175.417 83.9969 175.91 84.5204C176.433 85.0131 176.695 85.5981 176.695 86.2756C176.695 86.9222 176.541 87.5073 176.233 88.0307C175.925 88.5234 175.571 88.9237 175.171 89.2316C174.801 89.5396 174.478 89.6935 174.201 89.6935C173.954 89.6935 173.739 89.6012 173.554 89.4164C173.8 89.1085 174.062 88.739 174.339 88.3079C174.616 87.8768 174.817 87.4611 174.94 87.0608C175.063 86.6913 175.125 86.3218 175.125 85.9523C175.125 85.1517 174.755 84.7514 174.016 84.7514C173.123 84.7514 172.245 85.1209 171.383 85.8599C170.552 86.5989 169.782 87.5535 169.074 88.7236C168.396 89.8629 167.842 91.0792 167.411 92.3725C167.011 93.635 166.811 94.8051 166.811 95.8828C166.811 96.8681 167.011 97.6841 167.411 98.3308C167.842 98.9774 168.535 99.3007 169.49 99.3007C170.752 99.3007 171.861 98.9004 172.815 98.0998C173.77 97.2684 174.616 96.2369 175.356 95.0052C176.095 93.7427 176.741 92.4648 177.295 91.1716C177.419 91.1716 177.542 91.2024 177.665 91.2639C177.788 91.2947 177.85 91.4025 177.85 91.5873C177.234 93.1269 176.51 94.5587 175.679 95.8828C174.847 97.2069 173.893 98.2692 172.815 99.0698C171.768 99.8704 170.536 100.271 169.12 100.271Z" fill="#F9DE15"/>
<path d="M187.304 100.225C186.596 100.225 185.965 100.024 185.411 99.6241C184.887 99.2238 184.625 98.4078 184.625 97.1761C184.625 96.6526 184.656 96.1599 184.718 95.698C184.81 95.2362 184.918 94.7435 185.041 94.22C184.764 94.6819 184.379 95.2516 183.886 95.929C183.394 96.6064 182.839 97.2684 182.224 97.9151C181.638 98.5617 181.023 99.1006 180.376 99.5317C179.76 99.9628 179.175 100.178 178.621 100.178C177.82 100.178 177.174 99.8242 176.681 99.116C176.188 98.377 175.942 97.4224 175.942 96.2523C175.942 94.9898 176.234 93.635 176.819 92.1877C177.405 90.7405 178.205 89.3548 179.221 88.0307C180.237 86.7067 181.408 85.6289 182.732 84.7975C184.056 83.9661 185.441 83.5505 186.889 83.5505C187.597 83.5505 188.274 83.6736 188.921 83.92C189.567 84.1355 190.137 84.505 190.63 85.0285C190.845 85.244 190.953 85.4904 190.953 85.7675C190.953 85.9523 190.876 86.1062 190.722 86.2294C190.568 86.3526 190.368 86.3833 190.122 86.3218C189.783 85.244 189.059 84.7052 187.951 84.7052C187.427 84.7052 186.827 84.8745 186.15 85.2132C185.318 85.6443 184.425 86.3372 183.471 87.2917C182.547 88.2155 181.669 89.2778 180.838 90.4787C180.037 91.6488 179.375 92.8344 178.852 94.0353C178.328 95.2362 178.067 96.3293 178.067 97.3146C178.067 98.3308 178.451 98.8389 179.221 98.8389C179.899 98.8389 180.592 98.5155 181.3 97.8689C182.039 97.2223 182.732 96.4217 183.378 95.4671C184.056 94.4817 184.672 93.5118 185.226 92.5572C185.78 91.6027 186.211 90.8328 186.519 90.2478C186.981 89.4164 187.412 88.7236 187.812 88.1693C188.213 87.615 188.782 87.3379 189.521 87.3379C189.86 87.3379 190.199 87.3841 190.537 87.4765C190.876 87.5689 191.23 87.5843 191.6 87.5227C190.676 88.4464 189.86 89.5396 189.152 90.8021C188.474 92.0645 187.951 93.3116 187.581 94.5433C187.212 95.7442 187.027 96.7604 187.027 97.5918C187.027 98.5155 187.335 98.9774 187.951 98.9774C188.567 98.9774 189.229 98.5617 189.937 97.7303C190.645 96.8681 191.307 95.9136 191.923 94.8666C192.077 94.8666 192.185 94.9282 192.246 95.0514C192.339 95.1746 192.385 95.2977 192.385 95.4209C191.954 96.1907 191.461 96.9451 190.907 97.6841C190.383 98.4232 189.814 99.039 189.198 99.5317C188.613 99.9936 187.982 100.225 187.304 100.225Z" fill="#F9DE15"/>
<path d="M200.856 94.7281V94.6819C199.84 96.2215 198.654 97.5456 197.299 98.6541C195.975 99.7318 194.697 100.271 193.466 100.271C192.511 100.271 191.772 100.024 191.249 99.5317C190.725 99.039 190.463 98.4386 190.463 97.7303C190.463 96.8989 190.756 96.1291 191.341 95.4209C191.926 94.7127 192.557 94.3586 193.235 94.3586C193.481 94.3586 193.697 94.4509 193.881 94.6357C193.45 95.1284 193.081 95.7134 192.773 96.3909C192.465 97.0375 192.311 97.6226 192.311 98.146V98.2846C192.311 98.9312 192.588 99.2546 193.142 99.2546C193.604 99.2546 194.143 99.039 194.759 98.6079C195.375 98.146 195.975 97.6072 196.56 96.9913C197.176 96.3447 197.654 95.775 197.992 95.2823C198.3 94.8512 198.685 94.2046 199.147 93.3424C199.609 92.4802 200.025 91.5103 200.394 90.4325C200.764 89.3548 200.948 88.3079 200.948 87.2917C200.979 86.4911 200.856 85.8753 200.579 85.4442C200.332 85.0131 199.994 84.7975 199.563 84.7975C198.947 84.7975 198.393 85.0285 197.9 85.4904C197.407 85.9523 196.884 86.8144 196.329 88.0769C195.929 88.1077 195.667 88.0461 195.544 87.8922C195.421 87.7382 195.359 87.5689 195.359 87.3841C195.359 87.0146 195.621 86.5527 196.145 85.9984C196.668 85.4442 197.315 84.9515 198.085 84.5204C198.854 84.0585 199.593 83.8276 200.302 83.8276C201.287 83.8276 202.057 84.1509 202.611 84.7975C203.196 85.4442 203.489 86.3372 203.489 87.4765C203.489 88.0923 203.396 88.7544 203.212 89.4626C203.058 90.14 202.827 90.8328 202.519 91.5411C203.135 90.8021 203.812 90.0322 204.551 89.2316C205.29 88.4002 205.998 87.6304 206.676 86.9222C207.384 86.1832 208 85.5827 208.523 85.1209C209.047 84.6282 209.401 84.3664 209.586 84.3357C209.986 84.4588 210.217 84.659 210.278 84.9361C210.371 85.2132 210.402 85.475 210.371 85.7213C210.34 85.9369 210.263 86.214 210.14 86.5527C210.047 86.8606 209.832 87.2917 209.493 87.846C208.908 88.8313 208.338 89.8937 207.784 91.033C207.23 92.1415 206.599 93.558 205.89 95.2823C207.307 93.25 208.785 91.4025 210.325 89.7397C211.895 88.0769 213.419 86.7067 214.897 85.6289C215.605 85.0439 216.314 84.582 217.022 84.2433C217.761 83.9046 218.423 83.7352 219.008 83.7352C219.747 83.7352 220.347 83.9815 220.809 84.4742C221.271 84.9669 221.502 85.5674 221.502 86.2756C221.502 86.8606 221.348 87.4149 221.04 87.9384C220.732 88.4618 220.378 88.8929 219.978 89.2316C219.578 89.5396 219.239 89.6935 218.962 89.6935C218.777 89.6935 218.592 89.6012 218.408 89.4164C218.654 89.0777 218.916 88.6928 219.193 88.2617C219.501 87.8306 219.716 87.4149 219.839 87.0146C219.932 86.6451 219.978 86.2756 219.978 85.9061C219.978 85.475 219.886 85.1824 219.701 85.0285C219.516 84.8437 219.254 84.7514 218.916 84.7514C218.238 84.7514 217.53 85.1209 216.791 85.8599C216.052 86.5989 215.374 87.5535 214.759 88.7236C214.143 89.8629 213.635 91.0792 213.234 92.3725C212.834 93.6657 212.619 94.8512 212.588 95.929C212.557 96.7296 212.68 97.4994 212.957 98.2384C213.234 98.9466 213.789 99.3007 214.62 99.3007C215.575 99.3007 216.514 98.9158 217.438 98.146C218.392 97.3762 219.301 96.3755 220.163 95.1438C221.025 93.8813 221.779 92.5572 222.426 91.1716C222.549 91.1716 222.672 91.2024 222.795 91.2639C222.919 91.2947 222.98 91.4025 222.98 91.5873C222.303 93.1269 221.487 94.5587 220.532 95.8828C219.608 97.2069 218.577 98.2692 217.438 99.0698C216.329 99.8704 215.159 100.271 213.927 100.271C212.634 100.271 211.649 99.8396 210.971 98.9774C210.325 98.1152 210.001 97.0683 210.001 95.8366C210.001 94.7589 210.217 93.558 210.648 92.2339C211.11 90.9098 211.664 89.7089 212.311 88.6312C211.202 89.6473 210.109 90.8021 209.031 92.0953C207.984 93.3886 207.061 94.7127 206.26 96.0675C205.459 97.4224 204.905 98.6695 204.597 99.8088C204.166 99.8088 203.874 99.6241 203.72 99.2546C203.566 98.8543 203.489 98.4386 203.489 98.0075C203.489 97.1145 203.689 96.0829 204.089 94.9128C204.489 93.7427 204.874 92.7574 205.244 91.9568C205.767 90.879 206.245 89.9399 206.676 89.1393C207.107 88.3079 207.476 87.615 207.784 87.0608C207.661 87.0608 207.399 87.2609 206.999 87.6612C206.629 88.0307 206.198 88.4926 205.706 89.0469C205.244 89.6012 204.813 90.1092 204.412 90.5711C203.489 91.6181 202.734 92.4648 202.149 93.1115C201.564 93.7581 201.133 94.297 200.856 94.7281Z" fill="#F9DE15"/>
<path d="M43.3643 98.0986C43.5182 96.2203 43.8108 94.1264 44.2419 91.817C44.7037 89.4768 45.2272 87.0904 45.8123 84.6578C46.4281 82.1944 47.0902 79.7926 47.7984 77.4524C48.5374 75.1121 49.2764 72.9567 50.0154 70.986C50.7852 69.0152 53.0947 61.779 53.8029 60.455C52.2941 61.6867 49.2456 63.973 47.7984 65.759C46.3511 67.5141 44.9501 69.4078 43.5952 71.4401C42.2711 73.4416 41.0087 75.4278 39.8078 77.3985C38.6376 79.3384 37.5753 81.1243 36.6208 82.7563C35.6662 84.3883 34.8502 85.7124 34.1728 86.7285C33.6801 87.4676 33.0642 88.3913 32.3252 89.4999C31.5862 90.6084 30.724 91.7785 29.7387 93.0102C28.7533 94.2419 27.6294 95.3966 26.3669 96.4743C25.1352 97.5521 23.7649 98.4296 22.2561 99.1071C20.7473 99.7845 19.0999 100.123 17.3139 100.123C15.4972 100.123 13.973 99.7229 12.7413 98.9223C11.5096 98.1525 10.5704 97.1364 9.92377 95.8739C9.30792 94.6114 9 93.2873 9 91.9017C9 90.4544 9.30792 89.0534 9.92377 87.6985C10.5396 86.3129 11.3556 85.035 12.3718 83.8649C13.4187 82.6948 14.5888 81.7094 15.8821 80.9088C17.2062 80.1082 18.561 79.5539 19.9467 79.246C20.0699 79.2152 20.1776 79.1998 20.27 79.1998C20.4856 79.1998 20.5933 79.2922 20.5933 79.4769C20.5933 79.5693 20.424 79.7079 20.0853 79.8926C17.4679 81.3091 15.5126 83.0951 14.2193 85.2505C12.926 87.406 12.2794 89.5307 12.2794 91.6245C12.2794 92.7946 12.5411 93.8724 13.0646 94.8577C13.5881 95.8431 14.3117 96.6129 15.2355 97.1672C16.1592 97.7522 17.2216 98.0447 18.4225 98.0447C20.0545 98.0447 21.5479 97.6752 22.9028 96.9362C24.2576 96.228 25.5047 95.2734 26.644 94.0725C27.7833 92.9024 28.8611 91.6245 29.8772 90.2389C30.9242 88.8224 31.9249 87.4368 32.8795 86.0819C33.4953 85.2505 34.2343 84.1266 35.0965 82.7101C35.9587 81.2629 36.9287 79.6617 38.0064 77.9065C39.1149 76.1206 40.285 74.2884 41.5167 72.4101C42.7792 70.5318 44.0879 68.715 45.4428 66.9599C46.7976 65.2047 48.1679 63.6189 49.5535 62.2024C50.97 60.786 52.3864 59.6621 53.8029 58.8307C54.2263 58.5822 54.821 58.4438 55.0981 58.3515C55.406 58.2591 55.8371 58.2129 56.3914 58.2129C56.7609 58.2129 56.1217 60.685 55.6697 62.2024C55.4332 62.996 55.2099 63.4107 54.948 64.1962C54.3918 65.8642 53.5046 68.5572 53.5046 68.5572C53.5046 68.5572 52.2787 72.3562 51.5397 74.6348C50.8314 76.9135 50.154 79.2845 49.5074 81.7479C48.8607 84.2113 48.2757 86.6747 47.7522 89.1381C47.2287 91.5707 46.813 93.8339 46.5051 95.9278C49.4612 90.6007 52.4172 85.7663 55.3733 81.4246C58.3602 77.0828 61.2854 73.3416 64.1491 70.2007C67.0436 67.0599 69.8303 64.6273 72.5093 62.903C72.9403 62.4411 73.5408 61.9176 74.3106 61.3326C75.0804 60.7475 75.8194 60.455 76.5277 60.455C76.9587 60.455 77.3129 60.5781 77.59 60.8245C77.8979 61.04 78.0519 61.3172 78.0519 61.6559C78.0519 61.9946 77.8363 62.3795 77.4052 62.8106C77.0049 63.2109 76.4199 63.5342 75.6501 63.7805C75.4345 63.8421 75.1882 63.9191 74.9111 64.0115C74.6647 64.0731 74.3876 64.1347 74.0797 64.1962C72.7864 66.1362 71.3545 68.6457 69.7841 71.725C68.2445 74.7734 66.8281 78.1606 65.5348 81.8864C64.8266 83.9495 64.1491 86.0742 63.5025 88.2605C62.8866 90.4159 62.5787 92.4174 62.5787 94.265C62.5787 94.9424 62.7019 95.5891 62.9482 96.2049C63.1946 96.8207 63.6564 97.1287 64.3339 97.1287C65.1345 97.1287 66.0121 96.6976 66.9666 95.8354C67.9212 94.9424 68.8604 93.8031 69.7841 92.4174C70.7079 91.0318 71.4777 89.5691 72.0936 88.0295C72.4631 88.0295 72.6478 88.1681 72.6478 88.4452C71.9088 90.1388 71.0312 91.7862 70.0151 93.3874C69.0297 94.9886 67.9366 96.2973 66.7357 97.3134C65.5656 98.3604 64.3339 98.8838 63.0406 98.8838C62.0245 98.8838 61.1931 98.5143 60.5464 97.7753C59.9306 97.0363 59.6226 95.9432 59.6226 94.4959C59.6226 93.2642 59.8228 91.7554 60.2231 89.9694C60.6542 88.1527 61.2239 86.1974 61.9321 84.1035C62.6711 81.9788 63.4717 79.8388 64.3339 77.6833C65.4424 75.0044 66.5201 72.6641 67.5671 70.6626C68.614 68.6303 69.584 66.9368 70.477 65.5819C67.9212 67.6142 65.2884 70.2931 62.5787 73.6187C59.8998 76.9135 57.2054 80.7009 54.4957 84.9811C51.786 89.2612 49.0917 93.8955 46.4127 98.8838C46.1664 99.3457 45.7815 99.6075 45.258 99.669C44.7653 99.7614 44.3188 99.669 43.9185 99.3919C43.5182 99.1456 43.3335 98.7145 43.3643 98.0986Z" fill="#F9DE15"/>
<path fill-rule="evenodd" clip-rule="evenodd" d="M124.269 2.40169C124.601 2.39402 124.921 2.52478 125.154 2.76281C132.241 10.0294 142.899 27.6266 131.465 48.5899C130.416 50.5144 128.349 52.439 128.349 52.439C128.349 52.439 129.23 50.616 129.548 50.0333C139.829 31.1838 130.895 12.8947 124.326 5.40466C110.554 21.7596 113.236 40.1178 118.76 50.0333C119.083 50.6131 119.959 52.439 119.959 52.439C119.959 52.439 117.915 50.5144 116.842 48.5899C110.859 37.8499 107.757 20.3947 123.403 2.80326C123.624 2.55476 123.938 2.40935 124.269 2.40169ZM97.0174 17.9331C97.3438 17.7635 97.7299 17.7525 98.0654 17.9033C100.191 18.859 102.817 20.2032 104.982 21.6466C107.148 23.09 110.997 26.2173 110.997 26.2173L104.501 23.09C104.501 23.09 100.652 21.1655 98.4896 20.7461C95.4369 40.3729 107.869 51.8049 113.883 55.8069C114.478 56.1024 118.286 58.4531 118.286 58.4531C118.286 58.4531 114.124 57.2503 112.199 56.288C104.801 52.6134 92.1914 40.6721 96.3909 18.7738C96.4602 18.4125 96.691 18.1028 97.0174 17.9331ZM94.015 45.8833C95.7974 45.1011 99.4495 44.0192 99.4495 44.0192C99.4495 44.0192 95.5959 43.7322 93.6759 44.2597C93.4799 44.3158 93.3137 44.3615 93.162 44.4032C92.577 44.5641 92.209 44.6653 91.1877 45.0698C90.5477 45.3233 89.9193 45.6004 89.4081 45.8833C89.1533 46.0243 88.9013 46.1811 88.6833 46.353C88.4858 46.5087 88.2154 46.7536 88.0444 47.096C87.8526 47.4799 87.9048 47.8534 87.9217 47.9679C87.9475 48.143 87.9969 48.3124 88.0472 48.4578C88.1498 48.7544 88.3082 49.0994 88.5031 49.469C88.8972 50.216 89.4988 51.172 90.2878 52.2308C91.8662 54.3489 94.2452 56.9462 97.3289 59.1534C103.539 63.5989 112.549 66.2086 123.506 60.3776C123.687 60.2812 123.938 60.1307 124.228 59.9487C124.517 60.1307 124.768 60.2812 124.949 60.3776C135.906 66.2086 144.916 63.5989 151.127 59.1534C154.21 56.9462 156.589 54.3489 158.168 52.2308C158.957 51.172 159.558 50.216 159.952 49.469C160.147 49.0994 160.306 48.7544 160.408 48.4578C160.458 48.3124 160.508 48.143 160.534 47.9679C160.551 47.8534 160.603 47.4799 160.411 47.096C160.24 46.7536 159.97 46.5087 159.772 46.353C159.554 46.1811 159.302 46.0243 159.047 45.8833C158.536 45.6004 157.908 45.3233 157.268 45.0698C156.246 44.6653 155.879 44.5641 155.294 44.4033C155.142 44.3616 154.976 44.3158 154.78 44.2597C152.86 43.7322 149.006 44.0192 149.006 44.0192C149.006 44.0192 152.658 45.1011 154.44 45.8833C156.223 46.6654 157.978 48.0421 157.978 48.0421C157.978 48.0421 157.884 48.2337 157.825 48.3464C157.499 48.9627 156.969 49.8134 156.239 50.7934C154.778 52.7528 152.571 55.1613 149.726 57.1973C144.081 61.2383 137.218 63.505 125.912 59.1748C125.772 59.1282 125.132 58.8827 125.132 58.8827L124.233 58.5274H124.228L123.324 58.8827C123.324 58.8827 122.684 59.1282 122.544 59.1748C111.237 63.505 104.375 61.2383 98.7291 57.1973C95.8847 55.1613 93.677 52.7528 92.2168 50.7934C91.4866 49.8134 90.956 48.9627 90.6308 48.3464C90.5713 48.2337 90.4777 48.0421 90.4777 48.0421C90.4777 48.0421 92.2325 46.6654 94.015 45.8833ZM150.39 17.9033C150.726 17.7525 151.112 17.7635 151.438 17.9331C151.764 18.1028 151.995 18.4125 152.065 18.7738C156.264 40.6721 143.654 52.6134 136.256 56.288C134.331 57.2503 130.17 58.4531 130.17 58.4531C130.17 58.4531 133.977 56.1024 134.572 55.8069C140.586 51.8049 153.018 40.3729 149.966 20.7461C147.803 21.1655 143.954 23.09 143.954 23.09L137.459 26.2173C137.459 26.2173 141.308 23.09 143.473 21.6466C145.638 20.2032 148.264 18.859 150.39 17.9033Z" fill="#F9DE15"/>
</svg>
