<svg width="142" height="66" viewBox="0 0 142 66" fill="none" xmlns="http://www.w3.org/2000/svg">
<path d="M42.1302 65.4718C41.2969 65.4718 40.6771 65.1771 40.2706 64.5877C39.8845 63.978 39.6914 63.2464 39.6914 62.3929C39.6914 61.6003 39.8438 60.7772 40.1487 59.9236C40.4738 58.9888 40.9209 58.1352 41.49 57.3629C42.0794 56.5907 42.7195 55.9708 43.4105 55.5034C44.1218 55.0156 44.823 54.7717 45.5139 54.7717C46.3472 54.7717 46.9569 55.0563 47.343 55.6253C47.7495 56.1944 47.9527 56.9158 47.9527 57.7897C47.9527 58.3994 47.8511 59.0396 47.6478 59.7102C47.4446 60.3809 47.1703 61.0414 46.8248 61.6917C47.089 61.9559 47.4649 62.088 47.9527 62.088C48.5217 62.088 49.0095 61.9051 49.4159 61.5393C49.8224 61.1735 50.2187 60.5231 50.6048 59.5883C50.8487 59.5883 50.9706 59.6797 50.9706 59.8626C50.5845 60.7975 50.1374 61.4885 49.6293 61.9356C49.1416 62.3624 48.5116 62.5656 47.7393 62.5453C47.2719 62.5453 46.8857 62.4132 46.5809 62.149C46.0118 63.0838 45.331 63.8764 44.5384 64.5268C43.7662 65.1568 42.9634 65.4718 42.1302 65.4718ZM42.5569 64.8011C43.0244 64.8011 43.4918 64.6081 43.9592 64.2219C44.4267 63.8155 44.8534 63.3582 45.2396 62.8501C45.6257 62.342 45.9001 61.9051 46.0627 61.5393C45.7375 60.9499 45.5444 60.513 45.4835 60.2285C45.4428 59.9236 45.4225 59.7001 45.4225 59.5578C45.4225 59.1717 45.5241 58.877 45.7273 58.6738C45.9306 58.4705 46.1338 58.3689 46.337 58.3689C46.6215 58.3689 46.8654 58.4908 47.0686 58.7347C47.1093 58.5112 47.1398 58.3079 47.1601 58.125C47.1804 57.9218 47.1906 57.7287 47.1906 57.5458C47.1906 57.0174 47.089 56.5907 46.8857 56.2655C46.7028 55.92 46.4081 55.7472 46.0017 55.7472C45.5749 55.7472 45.1278 55.9302 44.6604 56.296C44.1929 56.6618 43.7458 57.1495 43.3191 57.7592C42.9126 58.3689 42.5569 59.0497 42.2521 59.8017C41.9879 60.4317 41.7847 61.0312 41.6424 61.6003C41.5001 62.149 41.429 62.6571 41.429 63.1245C41.429 63.6326 41.5205 64.039 41.7034 64.3439C41.8863 64.6487 42.1708 64.8011 42.5569 64.8011Z" fill="#313131"/>
<path d="M51.4856 65.4718C51.262 65.4718 50.9876 65.421 50.6625 65.3194C50.3576 65.2177 50.0833 65.0348 49.8394 64.7706C49.6158 64.4861 49.5041 64.0695 49.5041 63.5208C49.5041 62.9924 49.6768 62.3827 50.0223 61.6917C50.3678 61.0007 50.6726 60.391 50.9368 59.8626C50.7133 59.8626 50.6015 59.7712 50.6015 59.5883C50.6218 59.5273 50.7133 59.3343 50.8759 59.0091C51.0384 58.6839 51.2315 58.2978 51.4551 57.8507C51.6786 57.4036 51.892 56.9768 52.0952 56.5703C52.3188 56.1435 52.4915 55.8184 52.6135 55.5948C52.8574 55.1477 53.2435 54.9242 53.7719 54.9242H55.6619C55.3164 55.1884 55.0014 55.4831 54.7169 55.8082C54.4527 56.1131 54.1174 56.6821 53.7109 57.5153C53.7109 57.5153 53.6398 57.6576 53.4975 57.9421C53.3553 58.2267 53.1724 58.5925 52.9488 59.0396C52.7456 59.4664 52.5322 59.9033 52.3086 60.3504C52.1054 60.7975 51.9327 61.1735 51.7904 61.4783C51.5262 62.0474 51.3535 62.5046 51.2722 62.8501C51.1909 63.1753 51.1502 63.4801 51.1502 63.7647C51.1502 64.4353 51.3738 64.7706 51.8209 64.7706C52.3086 64.7706 52.898 64.3743 53.589 63.5817C54.158 62.9111 54.7169 62.1083 55.2656 61.1735C55.8143 60.2386 56.3326 59.2733 56.8203 58.2775C57.3284 57.2816 57.7755 56.3874 58.1616 55.5948C58.3852 55.1477 58.7815 54.9242 59.3505 54.9242H61.0272C60.5801 55.29 60.1228 55.8387 59.6554 56.5703C59.2083 57.302 58.7104 58.2368 58.1616 59.3749C58.0194 59.6797 57.8365 60.0659 57.6129 60.5333C57.3894 61.0007 57.1861 61.4986 57.0032 62.027C56.8407 62.5554 56.7594 63.0838 56.7594 63.6122C56.7594 64.3235 57.0134 64.6792 57.5215 64.6792C58.2125 64.6792 58.8831 64.2016 59.5334 63.2464C60.1838 62.2912 60.8239 61.0719 61.454 59.5883C61.6165 59.5883 61.708 59.5985 61.7283 59.6188C61.769 59.6391 61.7995 59.7204 61.8198 59.8626C61.5962 60.4114 61.3219 61.0109 60.9967 61.6612C60.6919 62.2912 60.3362 62.9009 59.9297 63.4903C59.5436 64.0797 59.1067 64.5573 58.6189 64.9231C58.1515 65.2889 57.6332 65.4718 57.0642 65.4718C56.5561 65.4718 56.1395 65.2889 55.8143 64.9231C55.4892 64.5369 55.3266 63.9984 55.3266 63.3074C55.3266 62.7587 55.4282 62.1693 55.6314 61.5393C55.2859 62.149 54.8896 62.7587 54.4425 63.3684C53.9954 63.978 53.5178 64.4861 53.0098 64.8926C52.5017 65.2787 51.9936 65.4718 51.4856 65.4718ZM60.9967 50.1991C61.1999 50.1788 61.3219 50.2296 61.3625 50.3515C61.4032 50.4734 61.4235 50.5751 61.4235 50.6563C61.0983 51.2254 60.6106 51.7538 59.9602 52.2415C59.3302 52.709 58.5884 52.9427 57.7349 52.9427C56.9423 52.9427 56.2919 52.7191 55.7839 52.272C55.2758 51.8046 55.0217 51.2559 55.0217 50.6259C55.0217 50.1584 55.1437 49.7621 55.3876 49.437C55.6518 49.1118 55.9871 48.9492 56.3935 48.9492C56.7187 48.9492 56.9423 49.0407 57.0642 49.2236C57.2065 49.4065 57.2776 49.5792 57.2776 49.7418C57.2776 49.9654 57.1861 50.1483 57.0032 50.2905C56.6374 50.4938 56.4545 50.7783 56.4545 51.1441C56.4545 51.4693 56.5561 51.7436 56.7594 51.9672C56.9829 52.1907 57.3487 52.3025 57.8568 52.3025C58.5071 52.3025 59.1168 52.1094 59.6859 51.7233C60.2549 51.3372 60.6919 50.8291 60.9967 50.1991Z" fill="#313131"/>
<path d="M66.159 64.0695C66.159 64.2727 66.1997 64.4658 66.281 64.6487C66.3826 64.8113 66.5452 64.8926 66.7687 64.8926C67.1752 64.8926 67.5918 64.6792 68.0186 64.2524C68.4454 63.8053 68.8823 63.2363 69.3294 62.5453C69.7969 61.834 70.2541 61.1023 70.7012 60.3504C71.4125 59.1513 72.0324 58.1555 72.5608 57.3629C73.1095 56.5703 73.6176 55.981 74.085 55.5948C74.3898 55.3306 74.654 55.168 74.8776 55.1071C75.1011 55.0258 75.3247 54.9851 75.5483 54.9851H75.7616C76.5949 54.9851 76.8286 55.3713 76.4628 56.1435L75.3653 58.4299C75.1824 58.7957 74.9589 59.253 74.6947 59.8017C74.4508 60.3301 74.2069 60.8788 73.9631 61.4478C73.7192 61.9966 73.5261 62.525 73.3839 63.033C73.2416 63.5208 73.1908 63.9171 73.2314 64.2219C73.2721 64.5268 73.455 64.6792 73.7802 64.6792C74.0444 64.6792 74.3594 64.4556 74.7252 64.0085C75.1113 63.5411 75.5178 62.9517 75.9445 62.2404C76.3917 61.5291 76.8388 60.7772 77.2859 59.9846C77.7533 59.192 78.2106 58.44 78.6577 57.7287C79.1251 57.0174 79.562 56.4484 79.9685 56.0216C80.0701 55.92 80.2937 55.7269 80.6392 55.4424C80.9846 55.1376 81.32 54.9851 81.6451 54.9851H81.8585C82.2243 54.9851 82.4784 55.0766 82.6206 55.2595C82.7629 55.4221 82.7324 55.7168 82.5292 56.1435L81.4622 58.4299C81.2793 58.7957 81.0558 59.253 80.7916 59.8017C80.5477 60.3301 80.3038 60.8788 80.06 61.4478C79.8364 61.9966 79.6535 62.525 79.5112 63.033C79.3893 63.5208 79.3486 63.9171 79.3893 64.2219C79.4503 64.5268 79.6535 64.6792 79.999 64.6792C80.5071 64.6792 81.005 64.415 81.4927 63.8866C82.0008 63.3582 82.4784 62.7079 82.9255 61.9356C83.3726 61.143 83.7689 60.3606 84.1144 59.5883C84.1957 59.5883 84.277 59.6188 84.3583 59.6797C84.4395 59.7204 84.4802 59.7814 84.4802 59.8626C84.1144 60.7772 83.6876 61.6612 83.1998 62.5148C82.7324 63.3684 82.1939 64.0695 81.5842 64.6182C80.9745 65.1669 80.2733 65.4413 79.4807 65.4413C78.8101 65.4413 78.3528 65.2381 78.1089 64.8316C77.8651 64.4252 77.7838 63.8866 77.8651 63.2159C77.9667 62.525 78.1699 61.7628 78.4748 60.9296C78.7999 60.076 79.1861 59.2123 79.6332 58.3384C80.0803 57.4645 80.5375 56.6415 81.005 55.8692C81.0863 55.7269 81.0863 55.6558 81.005 55.6558C80.944 55.6558 80.8119 55.7676 80.6087 55.9911C80.4054 56.2147 80.2835 56.3468 80.2429 56.3874C79.7145 56.9768 79.2165 57.6678 78.7491 58.4604C78.302 59.2326 77.8549 60.0252 77.4078 60.8382C76.981 61.6511 76.5441 62.4132 76.097 63.1245C75.6499 63.8155 75.1824 64.3743 74.6947 64.8011C74.2069 65.2279 73.6684 65.4413 73.079 65.4413C72.4287 65.4413 72.0121 65.1771 71.8292 64.6487C71.6666 64.1 71.6869 63.3684 71.8901 62.4538C72.1137 61.5393 72.4896 60.513 73.018 59.3749C73.5464 58.2368 74.1765 57.0682 74.9081 55.8692C74.9894 55.7269 74.9792 55.6558 74.8776 55.6558C74.776 55.6558 74.5626 55.8184 74.2374 56.1435C74.0139 56.3671 73.7903 56.6211 73.5668 56.9057C73.3635 57.1902 73.0892 57.617 72.7437 58.186C72.3982 58.7347 71.9104 59.5578 71.2804 60.6552C70.813 61.4682 70.3253 62.2506 69.8172 63.0025C69.3294 63.7545 68.8112 64.3743 68.2625 64.8621C67.7138 65.3295 67.1142 65.5632 66.4639 65.5632C65.9761 65.5632 65.5392 65.421 65.1531 65.1365C64.7669 64.8316 64.5739 64.3947 64.5739 63.8256C64.5739 63.4801 64.6551 63.1042 64.8177 62.6977C64.96 62.2912 65.1734 61.9458 65.4579 61.6612C65.7627 61.3767 66.1286 61.2548 66.5553 61.2954C66.8399 61.3157 67.0939 61.4275 67.3175 61.6307C66.9516 61.9762 66.6671 62.3827 66.4639 62.8501C66.2607 63.3176 66.159 63.724 66.159 64.0695Z" fill="#313131"/>
<path d="M90.7376 65.5632C90.2702 65.5632 89.8535 65.4311 89.4877 65.1669C89.1422 64.9027 88.9695 64.3642 88.9695 63.5513C88.9695 63.2058 88.9898 62.8806 89.0305 62.5758C89.0914 62.2709 89.1626 61.9458 89.2439 61.6003C89.061 61.9051 88.8069 62.2811 88.4818 62.7282C88.1566 63.1753 87.7908 63.6122 87.3843 64.039C86.9982 64.4658 86.5917 64.8215 86.1649 65.106C85.7585 65.3905 85.3723 65.5328 85.0065 65.5328C84.4781 65.5328 84.0513 65.299 83.7262 64.8316C83.401 64.3439 83.2384 63.7138 83.2384 62.9416C83.2384 62.1083 83.4315 61.2141 83.8176 60.2589C84.2038 59.3038 84.7322 58.3892 85.4028 57.5153C86.0735 56.6415 86.8458 55.9302 87.7196 55.3814C88.5935 54.8327 89.5081 54.5584 90.4632 54.5584C90.9307 54.5584 91.3778 54.6396 91.8046 54.8022C92.2313 54.9445 92.6073 55.1884 92.9325 55.5339C93.0747 55.6761 93.1459 55.8387 93.1459 56.0216C93.1459 56.1435 93.0951 56.2452 92.9935 56.3265C92.8918 56.4077 92.7597 56.4281 92.5972 56.3874C92.3736 55.6761 91.896 55.3205 91.1644 55.3205C90.8189 55.3205 90.4226 55.4322 89.9755 55.6558C89.4268 55.9403 88.8374 56.3976 88.2074 57.0276C87.5977 57.6373 87.0185 58.3384 86.4698 59.131C85.9414 59.9033 85.5044 60.6857 85.159 61.4783C84.8135 62.2709 84.6407 62.9924 84.6407 63.6427C84.6407 64.3134 84.8947 64.6487 85.4028 64.6487C85.8499 64.6487 86.3072 64.4353 86.7746 64.0085C87.2624 63.5817 87.7196 63.0534 88.1464 62.4233C88.5935 61.773 89 61.1328 89.3658 60.5028C89.7316 59.8728 90.0161 59.3647 90.2194 58.9786C90.5242 58.4299 90.8087 57.9726 91.0729 57.6068C91.3371 57.241 91.7131 57.0581 92.2009 57.0581C92.4244 57.0581 92.648 57.0886 92.8715 57.1495C93.0951 57.2105 93.3288 57.2207 93.5727 57.18C92.963 57.7897 92.4244 58.5112 91.957 59.3444C91.5099 60.1777 91.1644 61.0007 90.9205 61.8137C90.6766 62.6062 90.5547 63.2769 90.5547 63.8256C90.5547 64.4353 90.7579 64.7402 91.1644 64.7402C91.4896 64.7402 91.835 64.5573 92.2009 64.1914C92.587 63.8256 92.9528 63.3684 93.2983 62.8196C93.6641 62.2506 93.9994 61.6816 94.3043 61.1125C94.6091 60.5231 94.853 60.0151 95.0359 59.5883C95.1375 59.5883 95.2188 59.5985 95.2798 59.6188C95.3611 59.6391 95.4017 59.7204 95.4017 59.8626C95.3814 59.9439 95.3408 60.0354 95.2798 60.137C95.2391 60.2183 95.168 60.3707 95.0664 60.5943C94.9038 60.9194 94.6803 61.3564 94.3957 61.9051C94.1112 62.4538 93.7759 63.0127 93.3897 63.5817C93.0036 64.1305 92.587 64.5979 92.1399 64.984C91.6928 65.3702 91.2253 65.5632 90.7376 65.5632Z" fill="#313131"/>
<path d="M97.6697 65.5937C96.5519 65.5937 95.7187 65.299 95.17 64.7097C94.6416 64.1203 94.3774 63.3277 94.3774 62.3319C94.3774 61.8645 94.4688 61.3259 94.6518 60.7162C94.8347 60.1065 95.0785 59.4867 95.3834 58.8567C95.6882 58.2267 96.0236 57.6678 96.3894 57.18C96.9787 56.3874 97.6291 55.7777 98.3404 55.351C99.0517 54.9038 99.7731 54.6803 100.505 54.6803C101.277 54.6803 101.826 54.853 102.151 55.1985C102.496 55.5237 102.669 55.9098 102.669 56.3569C102.669 56.7837 102.568 57.1699 102.364 57.5153C102.161 57.8405 101.927 58.1047 101.663 58.3079C101.419 58.5112 101.206 58.6128 101.023 58.6128C100.86 58.6128 100.718 58.5518 100.596 58.4299C100.759 58.2267 100.932 57.9828 101.114 57.6983C101.297 57.4137 101.429 57.1394 101.511 56.8752C101.592 56.6313 101.633 56.3874 101.633 56.1435C101.633 55.6151 101.389 55.351 100.901 55.351C100.312 55.351 99.7325 55.5948 99.1635 56.0826C98.6147 56.5703 98.1067 57.2003 97.6392 57.9726C97.1921 58.7246 96.8263 59.5273 96.5418 60.3809C96.2776 61.2141 96.1455 61.9864 96.1455 62.6977C96.1455 63.348 96.2776 63.8866 96.5418 64.3134C96.8263 64.7402 97.2836 64.9536 97.9136 64.9536C98.7468 64.9536 99.4785 64.6894 100.108 64.161C100.738 63.6122 101.297 62.9314 101.785 62.1185C102.273 61.2853 102.7 60.4419 103.065 59.5883C103.147 59.5883 103.228 59.6086 103.309 59.6493C103.391 59.6696 103.431 59.7407 103.431 59.8626C103.025 60.8788 102.547 61.8238 101.999 62.6977C101.45 63.5716 100.82 64.2727 100.108 64.8011C99.4175 65.3295 98.6046 65.5937 97.6697 65.5937Z" fill="#313131"/>
<path d="M105.678 65.5937C104.56 65.5937 103.727 65.299 103.178 64.7097C102.65 64.1203 102.386 63.3277 102.386 62.3319C102.386 61.8645 102.477 61.3259 102.66 60.7162C102.843 60.1065 103.087 59.4867 103.392 58.8567C103.696 58.2267 104.032 57.6678 104.397 57.18C104.987 56.3874 105.637 55.7777 106.348 55.351C107.06 54.9038 107.781 54.6803 108.513 54.6803C109.285 54.6803 109.834 54.853 110.159 55.1985C110.505 55.5237 110.677 55.9098 110.677 56.3569C110.677 56.7837 110.576 57.1699 110.372 57.5153C110.169 57.8405 109.935 58.1047 109.671 58.3079C109.427 58.5112 109.214 58.6128 109.031 58.6128C108.869 58.6128 108.726 58.5518 108.604 58.4299C108.767 58.2267 108.94 57.9828 109.123 57.6983C109.305 57.4137 109.438 57.1394 109.519 56.8752C109.6 56.6313 109.641 56.3874 109.641 56.1435C109.641 55.6151 109.397 55.351 108.909 55.351C108.32 55.351 107.741 55.5948 107.172 56.0826C106.623 56.5703 106.115 57.2003 105.647 57.9726C105.2 58.7246 104.834 59.5273 104.55 60.3809C104.286 61.2141 104.154 61.9864 104.154 62.6977C104.154 63.348 104.286 63.8866 104.55 64.3134C104.834 64.7402 105.292 64.9536 105.922 64.9536C106.755 64.9536 107.487 64.6894 108.117 64.161C108.747 63.6122 109.305 62.9314 109.793 62.1185C110.281 61.2853 110.708 60.4419 111.074 59.5883C111.155 59.5883 111.236 59.6086 111.317 59.6493C111.399 59.6696 111.439 59.7407 111.439 59.8626C111.033 60.8788 110.555 61.8238 110.007 62.6977C109.458 63.5716 108.828 64.2727 108.117 64.8011C107.426 65.3295 106.613 65.5937 105.678 65.5937Z" fill="#313131"/>
<path d="M117.679 65.5632C117.212 65.5632 116.795 65.4311 116.43 65.1669C116.084 64.9027 115.911 64.3642 115.911 63.5513C115.911 63.2058 115.932 62.8806 115.972 62.5758C116.033 62.2709 116.104 61.9458 116.186 61.6003C116.003 61.9051 115.749 62.2811 115.424 62.7282C115.098 63.1753 114.733 63.6122 114.326 64.039C113.94 64.4658 113.534 64.8215 113.107 65.106C112.7 65.3905 112.314 65.5328 111.948 65.5328C111.42 65.5328 110.993 65.299 110.668 64.8316C110.343 64.3439 110.18 63.7138 110.18 62.9416C110.18 62.1083 110.373 61.2141 110.759 60.2589C111.146 59.3038 111.674 58.3892 112.345 57.5153C113.015 56.6415 113.788 55.9302 114.661 55.3814C115.535 54.8327 116.45 54.5584 117.405 54.5584C117.872 54.5584 118.32 54.6396 118.746 54.8022C119.173 54.9445 119.549 55.1884 119.874 55.5339C120.017 55.6761 120.088 55.8387 120.088 56.0216C120.088 56.1435 120.037 56.2452 119.935 56.3265C119.834 56.4077 119.702 56.4281 119.539 56.3874C119.315 55.6761 118.838 55.3205 118.106 55.3205C117.761 55.3205 117.364 55.4322 116.917 55.6558C116.369 55.9403 115.779 56.3976 115.149 57.0276C114.54 57.6373 113.96 58.3384 113.412 59.131C112.883 59.9033 112.446 60.6857 112.101 61.4783C111.755 62.2709 111.583 62.9924 111.583 63.6427C111.583 64.3134 111.837 64.6487 112.345 64.6487C112.792 64.6487 113.249 64.4353 113.716 64.0085C114.204 63.5817 114.661 63.0534 115.088 62.4233C115.535 61.773 115.942 61.1328 116.308 60.5028C116.673 59.8728 116.958 59.3647 117.161 58.9786C117.466 58.4299 117.751 57.9726 118.015 57.6068C118.279 57.241 118.655 57.0581 119.143 57.0581C119.366 57.0581 119.59 57.0886 119.813 57.1495C120.037 57.2105 120.271 57.2207 120.514 57.18C119.905 57.7897 119.366 58.5112 118.899 59.3444C118.452 60.1777 118.106 61.0007 117.862 61.8137C117.618 62.6062 117.497 63.2769 117.497 63.8256C117.497 64.4353 117.7 64.7402 118.106 64.7402C118.513 64.7402 118.95 64.4658 119.417 63.9171C119.884 63.348 120.321 62.718 120.728 62.027C120.829 62.027 120.901 62.0677 120.941 62.149C121.002 62.2303 121.033 62.3116 121.033 62.3929C120.748 62.9009 120.423 63.3988 120.057 63.8866C119.712 64.3743 119.336 64.7808 118.929 65.106C118.543 65.4108 118.127 65.5632 117.679 65.5632Z" fill="#313131"/>
<path d="M126.623 61.9356V61.9051C125.953 62.9213 125.17 63.7951 124.276 64.5268C123.402 65.2381 122.559 65.5937 121.746 65.5937C121.116 65.5937 120.628 65.4311 120.283 65.106C119.937 64.7808 119.765 64.3845 119.765 63.9171C119.765 63.3684 119.958 62.8603 120.344 62.3929C120.73 61.9254 121.146 61.6917 121.594 61.6917C121.756 61.6917 121.898 61.7527 122.02 61.8746C121.736 62.1998 121.492 62.5859 121.289 63.033C121.085 63.4598 120.984 63.8459 120.984 64.1914V64.2829C120.984 64.7097 121.167 64.9231 121.533 64.9231C121.837 64.9231 122.193 64.7808 122.6 64.4963C123.006 64.1914 123.402 63.8358 123.788 63.4293C124.195 63.0025 124.51 62.6266 124.733 62.3014C124.937 62.0169 125.191 61.5901 125.496 61.0211C125.8 60.452 126.075 59.8118 126.319 59.1005C126.563 58.3892 126.684 57.6983 126.684 57.0276C126.705 56.4992 126.624 56.0927 126.441 55.8082C126.278 55.5237 126.054 55.3814 125.77 55.3814C125.363 55.3814 124.998 55.5339 124.673 55.8387C124.347 56.1435 124.002 56.7126 123.636 57.5458C123.372 57.5662 123.199 57.5255 123.118 57.4239C123.036 57.3223 122.996 57.2105 122.996 57.0886C122.996 56.8447 123.169 56.5398 123.514 56.174C123.86 55.8082 124.286 55.4831 124.794 55.1985C125.303 54.8937 125.79 54.7413 126.258 54.7413C126.908 54.7413 127.416 54.9547 127.782 55.3814C128.168 55.8082 128.361 56.3976 128.361 57.1495C128.361 57.556 128.3 57.9929 128.178 58.4604C128.077 58.9075 127.924 59.3647 127.721 59.8322C128.127 59.3444 128.575 58.8363 129.062 58.3079C129.55 57.7592 130.017 57.2511 130.465 56.7837C130.932 56.296 131.338 55.8997 131.684 55.5948C132.029 55.2697 132.263 55.0969 132.385 55.0766C132.649 55.1579 132.802 55.29 132.842 55.4729C132.903 55.6558 132.924 55.8285 132.903 55.9911C132.883 56.1334 132.832 56.3163 132.751 56.5398C132.69 56.7431 132.548 57.0276 132.324 57.3934C131.938 58.0437 131.562 58.7449 131.196 59.4968C130.83 60.2285 130.414 61.1633 129.946 62.3014C130.881 60.9601 131.857 59.7407 132.873 58.6433C133.909 57.5458 134.915 56.6415 135.891 55.9302C136.358 55.544 136.826 55.2392 137.293 55.0156C137.781 54.7921 138.218 54.6803 138.604 54.6803C139.092 54.6803 139.488 54.8429 139.793 55.168C140.098 55.4932 140.25 55.8895 140.25 56.3569C140.25 56.7431 140.148 57.1089 139.945 57.4544C139.742 57.7999 139.508 58.0844 139.244 58.3079C138.98 58.5112 138.756 58.6128 138.573 58.6128C138.451 58.6128 138.33 58.5518 138.208 58.4299C138.37 58.2063 138.543 57.9523 138.726 57.6678C138.929 57.3832 139.071 57.1089 139.153 56.8447C139.214 56.6008 139.244 56.3569 139.244 56.1131C139.244 55.8285 139.183 55.6355 139.061 55.5339C138.939 55.4119 138.766 55.351 138.543 55.351C138.096 55.351 137.628 55.5948 137.141 56.0826C136.653 56.5703 136.206 57.2003 135.799 57.9726C135.393 58.7246 135.058 59.5273 134.793 60.3809C134.529 61.2344 134.387 62.0169 134.367 62.7282C134.346 63.2566 134.428 63.7647 134.61 64.2524C134.793 64.7198 135.159 64.9536 135.708 64.9536C136.338 64.9536 136.958 64.6995 137.567 64.1914C138.197 63.6834 138.797 63.0229 139.366 62.21C139.935 61.3767 140.433 60.5028 140.86 59.5883C140.941 59.5883 141.022 59.6086 141.104 59.6493C141.185 59.6696 141.226 59.7407 141.226 59.8626C140.778 60.8788 140.24 61.8238 139.61 62.6977C139 63.5716 138.319 64.2727 137.567 64.8011C136.836 65.3295 136.064 65.5937 135.251 65.5937C134.397 65.5937 133.747 65.3092 133.3 64.7402C132.873 64.1711 132.659 63.4801 132.659 62.6672C132.659 61.9559 132.802 61.1633 133.086 60.2894C133.391 59.4155 133.757 58.6229 134.184 57.9116C133.452 58.5823 132.731 59.3444 132.019 60.198C131.328 61.0515 130.719 61.9254 130.19 62.8196C129.662 63.7138 129.296 64.5369 129.093 65.2889C128.808 65.2889 128.615 65.1669 128.514 64.9231C128.412 64.6589 128.361 64.3845 128.361 64.1C128.361 63.5106 128.493 62.8298 128.757 62.0575C129.022 61.2853 129.276 60.6349 129.52 60.1065C129.865 59.3952 130.18 58.7754 130.465 58.247C130.749 57.6983 130.993 57.241 131.196 56.8752C131.115 56.8752 130.942 57.0073 130.678 57.2715C130.434 57.5153 130.15 57.8202 129.824 58.186C129.52 58.5518 129.235 58.8871 128.971 59.192C128.361 59.883 127.863 60.4419 127.477 60.8686C127.091 61.2954 126.806 61.6511 126.623 61.9356Z" fill="#313131"/>
<path d="M22.6804 64.1605C22.782 62.9208 22.9751 61.5389 23.2596 60.0146C23.5645 58.4701 23.91 56.8951 24.2961 55.2896C24.7026 53.6637 25.1395 52.0785 25.6069 50.534C26.0947 48.9894 26.5824 47.5668 27.0702 46.2662C27.5783 44.9655 29.1025 40.1896 29.5699 39.3157C28.5741 40.1286 26.5621 41.6376 25.6069 42.8163C24.6517 43.9747 23.7271 45.2246 22.8328 46.5659C21.959 47.8869 21.1257 49.1977 20.3331 50.4984C19.5608 51.7788 18.8597 52.9575 18.2297 54.0346C17.5997 55.1117 17.0611 55.9856 16.614 56.6563C16.2889 57.144 15.8824 57.7537 15.3946 58.4853C14.9069 59.217 14.3378 59.9892 13.6875 60.8022C13.0372 61.6151 12.2954 62.3772 11.4621 63.0885C10.6492 63.7998 9.74486 64.379 8.74903 64.8261C7.75321 65.2732 6.66593 65.4968 5.4872 65.4968C4.28814 65.4968 3.28216 65.2326 2.46924 64.7042C1.65632 64.1961 1.03647 63.5254 0.609689 62.6922C0.20323 61.859 0 60.9851 0 60.0705C0 59.1154 0.20323 58.1907 0.609689 57.2964C1.01615 56.3819 1.55471 55.5385 2.22536 54.7662C2.91634 53.994 3.68862 53.3436 4.54218 52.8152C5.41607 52.2868 6.31028 51.921 7.22481 51.7178C7.3061 51.6975 7.37723 51.6873 7.4382 51.6873C7.58046 51.6873 7.65159 51.7483 7.65159 51.8702C7.65159 51.9312 7.53982 52.0226 7.31627 52.1446C5.58881 53.0794 4.29831 54.2582 3.44474 55.6808C2.59118 57.1034 2.1644 58.5057 2.1644 59.8876C2.1644 60.6599 2.33714 61.3712 2.68263 62.0215C3.02812 62.6719 3.50571 63.1799 4.1154 63.5458C4.72509 63.9319 5.42623 64.125 6.21883 64.125C7.29594 64.125 8.28161 63.8811 9.17582 63.3933C10.07 62.9259 10.8931 62.2959 11.6451 61.5033C12.397 60.731 13.1083 59.8876 13.779 58.9731C14.4699 58.0382 15.1304 57.1237 15.7605 56.2295C16.1669 55.6808 16.6547 54.939 17.2237 54.0041C17.7927 53.049 18.4329 51.9922 19.1442 50.8337C19.8759 49.655 20.6481 48.4458 21.461 47.2061C22.2943 45.9664 23.158 44.7673 24.0522 43.6089C24.9464 42.4505 25.8508 41.4039 26.7653 40.469C27.7002 39.5342 28.635 38.7924 29.5699 38.2437C29.8493 38.0797 30.2418 37.9884 30.4247 37.9274C30.628 37.8664 30.9125 37.8359 31.2783 37.8359C31.5222 37.8359 31.1003 39.4676 30.802 40.469C30.6459 40.9928 30.4985 41.2665 30.3257 41.7849C29.9586 42.8858 29.373 44.6632 29.373 44.6632C29.373 44.6632 28.5639 47.1705 28.0762 48.6744C27.6087 50.1783 27.1616 51.7432 26.7349 53.369C26.3081 54.9949 25.9219 56.6207 25.5764 58.2465C25.231 59.8521 24.9566 61.3458 24.7534 62.7278C26.7044 59.2119 28.6554 56.0212 30.6064 53.1556C32.5777 50.2901 34.5084 47.8209 36.3984 45.7479C38.3088 43.675 40.148 42.0695 41.9161 40.9314C42.2006 40.6265 42.5969 40.281 43.105 39.8949C43.6131 39.5088 44.1008 39.3157 44.5682 39.3157C44.8528 39.3157 45.0865 39.397 45.2694 39.5596C45.4726 39.7018 45.5742 39.8848 45.5742 40.1083C45.5742 40.3319 45.432 40.5859 45.1475 40.8704C44.8833 41.1346 44.4971 41.348 43.989 41.5106C43.8468 41.5512 43.6842 41.602 43.5013 41.663C43.3387 41.7037 43.1558 41.7443 42.9526 41.7849C42.099 43.0653 41.154 44.7216 40.1175 46.7539C39.1014 48.7659 38.1665 51.0014 37.313 53.4605C36.8455 54.8221 36.3984 56.2244 35.9716 57.6673C35.5652 59.0899 35.3619 60.4109 35.3619 61.6303C35.3619 62.0774 35.4432 62.5042 35.6058 62.9107C35.7684 63.3171 36.0733 63.5204 36.5204 63.5204C37.0488 63.5204 37.628 63.2358 38.258 62.6668C38.888 62.0774 39.5078 61.3255 40.1175 60.4109C40.7272 59.4964 41.2353 58.5311 41.6417 57.5149C41.8856 57.5149 42.0076 57.6064 42.0076 57.7893C41.5198 58.907 40.9406 59.9943 40.2699 61.0511C39.6196 62.1079 38.8981 62.9716 38.1055 63.6423C37.3333 64.3333 36.5204 64.6788 35.6668 64.6788C34.9961 64.6788 34.4474 64.4349 34.0206 63.9471C33.6142 63.4594 33.4109 62.7379 33.4109 61.7827C33.4109 60.9698 33.543 59.974 33.8072 58.7953C34.0918 57.5962 34.4677 56.3057 34.9352 54.9237C35.4229 53.5215 35.9513 52.109 36.5204 50.6864C37.252 48.9183 37.9633 47.3738 38.6543 46.0528C39.3452 44.7115 39.9854 43.5937 40.5748 42.6995C38.888 44.0408 37.1504 45.8089 35.3619 48.0038C33.5939 50.1783 31.8156 52.6781 30.0272 55.5029C28.2388 58.3278 26.4605 61.3864 24.6924 64.6788C24.5298 64.9836 24.2758 65.1564 23.9303 65.197C23.6051 65.258 23.3104 65.197 23.0462 65.0141C22.782 64.8515 22.6601 64.567 22.6804 64.1605Z" fill="#313131"/>
<path fill-rule="evenodd" clip-rule="evenodd" d="M76.0804 1.00021C76.2994 0.995151 76.5107 1.08145 76.664 1.23855C81.342 6.03448 88.3761 17.6486 80.8297 31.4844C80.137 32.7546 78.7729 34.0248 78.7729 34.0248C78.7729 34.0248 79.3543 32.8217 79.564 32.4371C86.3494 19.9964 80.4533 7.92557 76.1178 2.98217C67.028 13.7764 68.7985 25.8928 72.4443 32.4371C72.6575 32.8198 73.2354 34.0248 73.2354 34.0248C73.2354 34.0248 71.8862 32.7546 71.1786 31.4844C67.2296 24.396 65.1823 12.8756 75.5085 1.26525C75.6543 1.10124 75.8614 1.00527 76.0804 1.00021ZM58.0941 11.251C58.3095 11.139 58.5643 11.1317 58.7858 11.2313C60.1887 11.8621 61.9221 12.7492 63.351 13.7018C64.78 14.6545 67.3203 16.7185 67.3203 16.7185L63.0335 14.6545C63.0335 14.6545 60.4931 13.3843 59.0657 13.1075C57.051 26.0612 65.2563 33.6063 69.2256 36.2476C69.6183 36.4427 72.1312 37.9941 72.1312 37.9941C72.1312 37.9941 69.3844 37.2003 68.1142 36.5652C63.2313 34.1399 54.9089 26.2587 57.6806 11.8058C57.7263 11.5674 57.8786 11.363 58.0941 11.251ZM56.1125 29.698C57.2889 29.1818 59.6992 28.4677 59.6992 28.4677C59.6992 28.4677 57.1559 28.2784 55.8887 28.6265C55.7593 28.6635 55.6496 28.6937 55.5495 28.7212C55.1634 28.8274 54.9205 28.8942 54.2465 29.1612C53.8241 29.3285 53.4093 29.5113 53.0719 29.698C52.9038 29.7911 52.7375 29.8946 52.5935 30.0081C52.4632 30.1108 52.2847 30.2725 52.1718 30.4985C52.0453 30.7518 52.0798 30.9983 52.0909 31.0739C52.1079 31.1895 52.1406 31.3013 52.1737 31.3973C52.2414 31.593 52.346 31.8207 52.4746 32.0646C52.7348 32.5577 53.1318 33.1886 53.6526 33.8874C54.6943 35.2854 56.2644 36.9996 58.2996 38.4564C62.3986 41.3904 68.345 43.1128 75.5765 39.2643C75.6961 39.2007 75.8616 39.1014 76.0529 38.9812C76.2441 39.1014 76.4096 39.2007 76.5292 39.2643C83.7608 43.1128 89.7072 41.3904 93.8061 38.4564C95.8413 36.9996 97.4114 35.2854 98.4532 33.8874C98.9739 33.1886 99.371 32.5577 99.6311 32.0646C99.7598 31.8207 99.8643 31.593 99.932 31.3973C99.9652 31.3013 99.9978 31.1895 100.015 31.0739C100.026 30.9983 100.06 30.7518 99.9339 30.4985C99.821 30.2725 99.6426 30.1108 99.5122 30.0081C99.3683 29.8946 99.202 29.7911 99.0338 29.698C98.6964 29.5113 98.2817 29.3285 97.8593 29.1612C97.1852 28.8942 96.9425 28.8274 96.5564 28.7213C96.4563 28.6937 96.3465 28.6635 96.2171 28.6265C94.9498 28.2784 92.4065 28.4677 92.4065 28.4677C92.4065 28.4677 94.8169 29.1818 95.9933 29.698C97.1697 30.2143 98.3279 31.1229 98.3279 31.1229C98.3279 31.1229 98.2661 31.2493 98.2268 31.3237C98.0122 31.7305 97.662 32.292 97.1801 32.9387C96.2164 34.2319 94.7592 35.8216 92.882 37.1653C89.1559 39.8324 84.6266 41.3284 77.1643 38.4705C77.072 38.4397 76.6495 38.2777 76.6495 38.2777L76.0566 38.0432H76.0529L75.4563 38.2777C75.4563 38.2777 75.0338 38.4397 74.9415 38.4705C67.4791 41.3284 62.9498 39.8324 59.2238 37.1653C57.3465 35.8216 55.8894 34.2319 54.9257 32.9387C54.4437 32.292 54.0935 31.7305 53.8789 31.3237C53.8397 31.2493 53.7778 31.1229 53.7778 31.1229C53.7778 31.1229 54.936 30.2143 56.1125 29.698ZM93.32 11.2313C93.5414 11.1317 93.7962 11.139 94.0117 11.251C94.2271 11.363 94.3794 11.5674 94.4252 11.8058C97.1968 26.2587 88.8744 34.1399 83.9915 36.5652C82.7213 37.2003 79.9745 37.9941 79.9745 37.9941C79.9745 37.9941 82.4874 36.4427 82.8801 36.2476C86.8494 33.6063 95.0548 26.0612 93.04 13.1075C91.6126 13.3843 89.0723 14.6545 89.0723 14.6545L84.7854 16.7185C84.7854 16.7185 87.3258 14.6545 88.7547 13.7018C90.1837 12.7492 91.917 11.8621 93.32 11.2313Z" fill="#313131"/>
</svg>
