<svg
    width="768"
    height="1359"
    viewBox="0 0 768 1359"
    fill="none"
    xmlns="http://www.w3.org/2000/svg"
>
    <g clip-path="url(#clip0_7001_522)">
        <rect width="768" height="1359" fill="#8F3FBA" />
        <path
            d="M1244.45 -77L1236.35 -6.41211C1253.08 -7.36686 1268.75 -8.78832 1283.55 -10.6143V90.0186C1253.85 93.2042 1172.68 122.23 1099.55 129.5C948.294 144.535 804.299 114.681 713.858 77.1885C628.719 41.8937 537.137 7.00008 347.453 7C157.768 7 66.1866 41.8937 -18.9525 77.1885C-109.394 114.681 -197.304 155 -369.88 155C-542.456 155 -630.367 114.681 -720.808 77.1885C-772.707 55.6735 -827 34.3072 -904.45 20.9033V-80.4092C-892.714 -78.61 -881.429 -76.6477 -870.547 -74.5439V-107L1244.45 -167V-77Z"
            fill="white"
        />
        <path
            d="M1979.18 52.0829L1968.68 150.702C1987.71 149.615 2005.55 147.859 2022.41 145.524L2022.65 192.047C1988.83 196.063 1643.01 376.884 1092.72 288.85C929.844 262.793 848.088 199.309 702.007 146.279C546.59 89.8599 495.575 73.9958 279.935 71.1809C64.2955 68.3661 -150.929 135.419 -248.363 183.526C-351.864 234.63 -452.54 289.723 -648.731 287.162C-844.921 284.602 -944.125 226.899 -1046.26 173.111C-1104.87 142.246 -1166.2 111.552 -1254 91.6536L-1252.15 -50.0635C-1238.84 -47.3726 -1226.05 -44.4602 -1213.72 -41.356L-1213.12 -86.7561L1980.82 -73.8102L1979.18 52.0829Z"
            fill="white"
            fill-opacity="0.7"
        />
        <path
            d="M-944.812 9.42491L-936.203 108.069C-951.333 106.93 -965.519 105.127 -978.926 102.747L-978.986 149.268C-952.095 153.374 -676.752 335.115 -239.604 248.558C-110.215 222.938 -45.4034 159.675 70.5625 107.038C193.94 51.0375 234.445 35.3106 405.833 33.0733C577.22 30.8361 748.465 98.4631 826.036 146.83C908.438 198.209 988.605 253.57 1144.53 251.535C1300.46 249.499 1379.16 192.064 1460.19 138.552C1506.69 107.844 1555.36 77.3166 1625.09 57.6536L1623.24 -84.0635C1612.67 -81.4084 1602.51 -78.5303 1592.72 -75.4593L1592.12 -120.859L-946.455 -116.468L-944.812 9.42491Z"
            fill="url(#paint0_linear_7001_522)"
            fill-opacity="0.34"
        />
        <path
            d="M-122.902 1380L-114.802 1309.41C-131.527 1310.37 -147.199 1311.79 -162 1313.62V1212.98C-132.303 1209.8 -99.6542 1208 -63.2354 1208C109.341 1208 197.251 1248.32 287.692 1285.81C372.832 1321.11 464.413 1356 654.098 1356C843.782 1356 935.364 1321.11 1020.5 1285.81C1110.94 1248.32 1198.85 1208 1371.43 1208C1544.01 1208 1631.92 1248.32 1722.36 1285.81C1774.26 1307.33 1828.55 1328.69 1906 1342.1V1443.41C1894.26 1441.61 1882.98 1439.65 1872.1 1437.54V1470H-122.902V1380Z"
            fill="white"
        />
        <path
            d="M1641.45 1492.46L1641.46 1393.28C1660.27 1396.38 1677.82 1400.01 1694.33 1404.12L1699.49 1357.88C1666.29 1350.31 1341.64 1133.89 785.234 1163.16C620.545 1171.83 532.542 1226.3 381.696 1263.56C221.21 1303.21 168.812 1313.58 -45.8704 1293.55C-260.553 1273.52 -467.423 1184.05 -559.195 1125.9C-656.682 1064.13 -750.938 998.683 -946.257 980.457C-1141.58 962.231 -1246.31 1009.11 -1353.55 1051.78C-1415.08 1076.26 -1479.31 1100.29 -1568.71 1110.78L-1581.87 1251.9C-1568.36 1250.63 -1555.33 1249.09 -1542.74 1247.31L-1546.96 1292.52L1629.76 1617.82L1641.45 1492.46Z"
            fill="white"
            fill-opacity="0.7"
        />
        <path
            d="M2310.87 1292.86L2300.22 1152.83C2318.44 1154.49 2335.53 1157.09 2351.68 1160.5L2351.62 1094.47C2319.23 1088.57 1987.2 829.836 1461.1 951.463C1305.38 987.463 1227.52 1077.08 1088.05 1151.46C939.652 1230.6 890.926 1252.81 684.576 1255.5C478.225 1258.19 271.851 1161.73 178.317 1092.86C78.9572 1019.7 -17.7219 940.897 -205.461 943.347C-393.2 945.798 -487.789 1027.1 -585.205 1102.82C-641.107 1146.28 -699.617 1189.47 -783.523 1217.18L-780.897 1418.34C-768.178 1414.6 -755.951 1410.54 -744.168 1406.21L-743.327 1470.65L2313.2 1471.56L2310.87 1292.86Z"
            fill="white"
            fill-opacity="0.7"
        />
    </g>
    <defs>
        <linearGradient
            id="paint0_linear_7001_522"
            x1="1624.96"
            y1="47.6149"
            x2="-979.869"
            y2="81.6165"
            gradientUnits="userSpaceOnUse"
        >
            <stop stop-color="white" />
            <stop offset="1" stop-color="white" />
        </linearGradient>
        <clipPath id="clip0_7001_522">
            <rect width="768" height="1359" fill="white" />
        </clipPath>
    </defs>
</svg>
