<svg
    width="360"
    height="1992"
    viewBox="0 0 360 1992"
    fill="none"
    xmlns="http://www.w3.org/2000/svg"
>
    <g clip-path="url(#clip0_7001_555)">
        <rect width="360" height="1992" fill="#8F3FBA" />
        <path
            d="M1040.45 -79.0742L1032.35 -8.48633C1049.08 -9.44108 1064.75 -10.8625 1079.55 -12.6885V87.9443C1049.85 91.13 968.682 120.156 895.55 127.426C744.294 142.461 600.299 112.607 509.858 75.1143C424.719 39.8194 333.137 4.92586 143.453 4.92578C-46.2315 4.92579 -137.813 39.8195 -222.953 75.1143C-313.394 112.607 -401.304 152.926 -573.88 152.926C-746.456 152.926 -834.367 112.607 -924.808 75.1143C-976.707 53.5993 -1031 32.233 -1108.45 18.8291V-82.4834C-1096.71 -80.6842 -1085.43 -78.7219 -1074.55 -76.6182V-109.074L1040.45 -169.074V-79.0742Z"
            fill="white"
        />
        <path
            d="M1775.18 50.0087L1764.68 148.628C1783.71 147.54 1801.55 145.785 1818.41 143.45L1818.65 189.973C1784.83 193.988 1439.01 374.81 888.723 286.776C725.844 260.719 644.088 197.234 498.007 144.205C342.59 87.7857 291.575 71.9216 75.9354 69.1067C-139.705 66.2918 -354.929 133.345 -452.363 181.452C-555.864 232.556 -656.54 287.649 -852.731 285.088C-1048.92 282.527 -1148.12 224.825 -1250.26 171.037C-1308.87 140.171 -1370.2 109.478 -1458 89.5794L-1456.15 -52.1377C-1442.84 -49.4468 -1430.05 -46.5344 -1417.72 -43.4303L-1417.12 -88.8303L1776.82 -75.8844L1775.18 50.0087Z"
            fill="white"
            fill-opacity="0.7"
        />
        <path
            d="M-1148.81 7.35069L-1140.2 105.994C-1155.33 104.856 -1169.52 103.053 -1182.93 100.673L-1182.99 147.194C-1156.1 151.3 -880.752 333.041 -443.604 246.484C-314.215 220.864 -249.403 157.601 -133.438 104.964C-10.0601 48.9632 30.4454 33.2364 201.833 30.9991C373.22 28.7619 544.465 96.3889 622.036 144.756C704.438 196.134 784.605 251.495 940.534 249.46C1096.46 247.425 1175.16 189.99 1256.19 136.478C1302.69 105.77 1351.36 75.2424 1421.09 55.5794L1419.24 -86.1377C1408.67 -83.4826 1398.51 -80.6045 1388.72 -77.5335L1388.12 -122.934L-1150.45 -118.542L-1148.81 7.35069Z"
            fill="url(#paint0_linear_7001_555)"
            fill-opacity="0.34"
        />
        <path
            d="M-326.902 2017.93L-318.802 1947.34C-335.527 1948.29 -351.199 1949.72 -366 1951.54V1850.91C-336.303 1847.72 -303.654 1845.93 -267.235 1845.93C-94.6592 1845.93 -6.74902 1886.25 83.6924 1923.74C168.832 1959.03 260.413 1993.93 450.098 1993.93C639.782 1993.93 731.364 1959.03 816.503 1923.74C906.944 1886.25 994.855 1845.93 1167.43 1845.93C1340.01 1845.93 1427.92 1886.25 1518.36 1923.74C1570.26 1945.25 1624.55 1966.62 1702 1980.02V2081.34C1690.26 2079.54 1678.98 2077.57 1668.1 2075.47V2107.93H-326.902V2017.93Z"
            fill="white"
        />
        <path
            d="M1437.45 2130.38L1437.46 2031.21C1456.27 2034.3 1473.82 2037.94 1490.33 2042.05L1495.49 1995.81C1462.29 1988.24 1137.64 1771.82 581.234 1801.09C416.545 1809.75 328.542 1864.23 177.696 1901.49C17.2097 1941.14 -35.1882 1951.51 -249.87 1931.48C-464.553 1911.44 -671.423 1821.98 -763.195 1763.83C-860.682 1702.05 -954.938 1636.61 -1150.26 1618.38C-1345.58 1600.16 -1450.31 1647.03 -1557.55 1689.7C-1619.08 1714.19 -1683.31 1738.22 -1772.71 1748.71L-1785.87 1889.82C-1772.36 1888.56 -1759.33 1887.01 -1746.74 1885.23L-1750.96 1930.44L1425.76 2255.74L1437.45 2130.38Z"
            fill="white"
            fill-opacity="0.7"
        />
        <path
            d="M2106.87 1930.79L2096.22 1790.75C2114.44 1792.41 2131.53 1795.01 2147.68 1798.43L2147.62 1732.4C2115.23 1726.49 1783.2 1467.76 1257.1 1589.39C1101.38 1625.39 1023.52 1715 884.045 1789.39C735.652 1868.52 686.926 1890.73 480.576 1893.43C274.226 1896.12 67.8511 1799.65 -25.6832 1730.78C-125.043 1657.63 -221.722 1578.82 -409.461 1581.27C-597.2 1583.72 -691.789 1665.02 -789.205 1740.75C-845.107 1784.2 -903.617 1827.4 -987.523 1855.11L-984.897 2056.26C-972.178 2052.53 -959.951 2048.47 -948.168 2044.14L-947.327 2108.58L2109.2 2109.48L2106.87 1930.79Z"
            fill="white"
            fill-opacity="0.7"
        />
    </g>
    <defs>
        <linearGradient
            id="paint0_linear_7001_555"
            x1="1420.96"
            y1="45.5406"
            x2="-1183.87"
            y2="79.5423"
            gradientUnits="userSpaceOnUse"
        >
            <stop stop-color="white" />
            <stop offset="1" stop-color="white" />
        </linearGradient>
        <clipPath id="clip0_7001_555">
            <rect width="360" height="1992" fill="white" />
        </clipPath>
    </defs>
</svg>
