<svg
    width="1920"
    height="1200"
    viewBox="0 0 1920 1200"
    fill="none"
    xmlns="http://www.w3.org/2000/svg"
>
    <rect width="1920" height="1200" fill="#8F3FBA" />
    <path
        d="M2109.9 -83L2101.8 -12.4121C2118.53 -13.3669 2134.2 -14.7883 2149 -16.6143V84.0186C2119.3 87.2042 2038.13 116.23 1965 123.5C1813.74 138.535 1669.75 108.681 1579.31 71.1885C1494.17 35.8936 1402.59 1.00008 1212.9 1C1023.22 1 931.636 35.8937 846.497 71.1885C756.056 108.681 668.145 149 495.569 149C322.993 149 235.083 108.681 144.642 71.1885C92.7426 49.6735 38.4491 28.3072 -39 14.9033V-86.4092C-27.2647 -84.61 -15.9791 -82.6477 -5.09766 -80.5439V-113L2109.9 -173V-83Z"
        fill="white"
    />
    <path
        d="M-34.9023 1225L-26.8018 1154.41C-43.5272 1155.37 -59.1987 1156.79 -74 1158.61V1057.98C-44.3026 1054.8 -11.6543 1053 24.7646 1053C197.341 1053 285.251 1093.32 375.692 1130.81C460.832 1166.11 552.413 1201 742.098 1201C931.782 1201 1023.36 1166.11 1108.5 1130.81C1198.94 1093.32 1286.85 1053 1459.43 1053C1632.01 1053 1719.92 1093.32 1810.36 1130.81C1862.26 1152.33 1916.55 1173.69 1994 1187.1V1288.41C1982.26 1286.61 1970.98 1284.65 1960.1 1282.54V1315H-34.9023V1225Z"
        fill="white"
    />
    <path
        d="M2844.63 46.0829L2834.13 144.702C2853.16 143.615 2871 141.859 2887.86 139.524L2888.1 186.047C2854.28 190.063 2508.46 370.884 1958.17 282.85C1795.29 256.793 1713.54 193.309 1567.46 140.279C1412.04 83.8599 1361.03 67.9958 1145.39 65.1809C929.745 62.3661 714.521 129.419 617.087 177.526C513.585 228.63 412.91 283.723 216.719 281.162C20.5282 278.601 -78.6753 220.899 -180.808 167.111C-239.416 136.246 -300.748 105.552 -388.55 85.6536L-386.701 -56.0635C-373.392 -53.3726 -360.598 -50.4602 -348.266 -47.3561L-347.674 -92.7561L2846.27 -79.8102L2844.63 46.0829Z"
        fill="white"
        fill-opacity="0.7"
    />
    <path
        d="M1729.45 1337.46L1729.46 1238.28C1748.27 1241.38 1765.82 1245.01 1782.33 1249.12L1787.49 1202.88C1754.29 1195.31 1429.64 978.889 873.234 1008.16C708.545 1016.83 620.542 1071.3 469.696 1108.56C309.21 1148.21 256.812 1158.58 42.1296 1138.55C-172.553 1118.52 -379.423 1029.05 -471.195 970.901C-568.682 909.126 -662.938 843.683 -858.257 825.456C-1053.58 807.23 -1158.31 854.105 -1265.55 896.776C-1327.08 921.263 -1391.31 945.289 -1480.71 955.78L-1493.87 1096.9C-1480.36 1095.63 -1467.33 1094.09 -1454.74 1092.31L-1458.96 1137.51L1717.76 1462.82L1729.45 1337.46Z"
        fill="white"
        fill-opacity="0.7"
    />
    <path
        d="M2398.87 1137.86L2388.22 997.827C2406.44 999.485 2423.53 1002.08 2439.68 1005.5L2439.62 939.47C2407.23 933.566 2075.2 674.835 1549.1 796.462C1393.38 832.462 1315.52 922.074 1176.05 996.459C1027.65 1075.6 978.926 1097.81 772.576 1100.5C566.226 1103.19 359.851 1006.72 266.317 937.856C166.957 864.699 70.2781 785.896 -117.461 788.346C-305.2 790.797 -399.789 872.097 -497.205 947.823C-553.107 991.277 -611.617 1034.47 -695.523 1062.18L-692.897 1263.34C-680.178 1259.6 -667.951 1255.54 -656.168 1251.21L-655.327 1315.65L2401.2 1316.56L2398.87 1137.86Z"
        fill="white"
        fill-opacity="0.7"
    />
    <path
        d="M-79.3639 3.42492L-70.7556 102.069C-85.8853 100.93 -100.072 99.1268 -113.479 96.7472L-113.538 143.268C-86.6473 147.374 188.696 329.115 625.843 242.558C755.233 216.938 820.044 153.675 936.01 101.038C1059.39 45.0375 1099.89 29.3106 1271.28 27.0733C1442.67 24.8361 1613.91 92.4631 1691.48 140.83C1773.89 192.209 1854.05 247.57 2009.98 245.535C2165.91 243.499 2244.61 186.064 2325.64 132.552C2372.14 101.844 2420.8 71.3166 2490.54 51.6536L2488.69 -90.0635C2478.12 -87.4084 2467.96 -84.5303 2458.16 -81.4593L2457.57 -126.859L-81.0073 -122.468L-79.3639 3.42492Z"
        fill="url(#paint0_linear_5047_673)"
        fill-opacity="0.34"
    />
    <defs>
        <linearGradient
            id="paint0_linear_5047_673"
            x1="2490.41"
            y1="41.6149"
            x2="-114.421"
            y2="75.6165"
            gradientUnits="userSpaceOnUse"
        >
            <stop stop-color="white" />
            <stop offset="1" stop-color="white" />
        </linearGradient>
    </defs>
</svg>
