<svg width="667" height="769" viewBox="0 0 667 769" fill="none" xmlns="http://www.w3.org/2000/svg">
    <g clip-path="url(#clip0_4_130)">
        <rect width="667" height="769" fill="#8F3FBA" />
        <path
            d="M1254.37 -62.4473L1249.1 -16.4686C1259.99 -17.0905 1270.2 -18.0164 1279.84 -19.2058V46.3431C1260.5 48.4182 1207.62 67.3249 1159.99 72.0601C1061.47 81.8536 967.671 62.4077 908.761 37.986C853.304 14.9962 793.651 -7.73237 670.097 -7.73242C546.542 -7.73242 486.889 14.9962 431.432 37.986C372.522 62.4077 315.26 88.6698 202.849 88.6699C90.439 88.6699 33.1771 62.4077 -25.7334 37.986C-59.5388 23.9719 -94.9038 10.0546 -145.352 1.32374V-64.6679C-137.708 -63.496 -130.357 -62.2178 -123.269 -60.8475V-81.9883L1254.37 -121.07V-62.4473Z"
            fill="white"
        />
        <path
            d="M-142.683 785.542L-137.407 739.563C-148.301 740.185 -158.509 741.111 -168.15 742.3V676.752C-148.806 674.677 -127.54 673.507 -103.818 673.507C8.59208 673.507 65.8539 699.769 124.764 724.191C180.221 747.181 239.875 769.909 363.429 769.909C486.983 769.909 546.636 747.181 602.093 724.191C661.004 699.769 718.266 673.507 830.676 673.507C943.086 673.507 1000.35 699.769 1059.26 724.191C1093.06 738.205 1128.43 752.122 1178.88 760.853V826.845C1171.23 825.673 1163.88 824.395 1156.79 823.024V844.165H-142.683V785.542Z"
            fill="white"
        />
        <path
            d="M1732.95 17.6341L1726.11 81.8712C1738.51 81.163 1750.13 80.0193 1761.11 78.4987L1761.26 108.802C1739.23 111.418 1513.98 229.199 1155.54 171.856C1049.45 154.884 996.192 113.532 901.04 78.9902C799.807 42.2408 766.577 31.9074 626.116 30.0739C485.655 28.2404 345.465 71.9165 282 103.252C214.583 136.539 149.006 172.425 21.2135 170.757C-106.579 169.089 -171.197 131.503 -237.722 96.4679C-275.897 76.3631 -315.848 56.3706 -373.039 43.4092L-371.834 -48.9007C-363.165 -47.148 -354.832 -45.2509 -346.799 -43.229L-346.413 -72.8011L1734.02 -64.3686L1732.95 17.6341Z"
            fill="white"
            fill-opacity="0.7"
        />
        <path
            d="M1006.56 858.792L1006.56 794.192C1018.81 796.209 1030.25 798.577 1041 801.252L1044.36 771.134C1022.74 766.201 811.274 625.233 448.847 644.301C341.573 649.945 284.251 685.426 185.995 709.699C81.4598 735.523 47.3295 742.28 -92.5074 729.231C-232.344 716.182 -367.093 657.908 -426.87 620.029C-490.37 579.791 -551.765 537.164 -678.99 525.292C-806.214 513.42 -874.436 543.952 -944.284 571.747C-984.366 587.697 -1026.2 603.347 -1084.43 610.18L-1093.01 702.098C-1084.21 701.273 -1075.72 700.269 -1067.52 699.109L-1070.27 728.556L998.941 940.447L1006.56 858.792Z"
            fill="white"
            fill-opacity="0.7"
        />
        <path
            d="M1442.59 728.783L1435.66 637.568C1447.53 638.648 1458.66 640.341 1469.18 642.566L1469.14 599.556C1448.04 595.711 1231.77 427.182 889.083 506.406C787.654 529.855 736.94 588.225 646.088 636.677C549.429 688.225 517.691 702.691 383.281 704.446C248.871 706.2 114.446 643.364 53.5205 598.505C-11.1991 550.853 -74.1727 499.523 -196.46 501.119C-318.747 502.716 -380.359 555.672 -443.813 604.997C-480.225 633.302 -518.336 661.437 -572.99 679.488L-571.28 810.513C-562.995 808.077 -555.031 805.435 -547.356 802.614L-546.808 844.589L1444.11 845.177L1442.59 728.783Z"
            fill="white"
            fill-opacity="0.7"
        />
        <path
            d="M-171.644 -10.1519L-166.036 54.1013C-175.891 53.3599 -185.132 52.1851 -193.865 50.6352L-193.904 80.9372C-176.388 83.6117 2.96174 201.992 287.705 145.611C371.985 128.924 414.201 87.7159 489.738 53.4301C570.102 16.9531 596.486 6.70914 708.122 5.25184C819.758 3.79462 931.301 47.8446 981.828 79.3491C1035.5 112.816 1087.72 148.876 1189.29 147.55C1290.86 146.225 1342.11 108.813 1394.9 73.9572C1425.18 53.9553 1456.88 34.0705 1502.31 21.2627L1501.1 -71.0472C1494.22 -69.3177 1487.6 -67.4431 1481.22 -65.4427L1480.83 -95.0148L-172.714 -92.1546L-171.644 -10.1519Z"
            fill="url(#paint0_linear_4_130)"
            fill-opacity="0.34"
        />
    </g>
    <defs>
        <linearGradient
            id="paint0_linear_4_130"
            x1="1502.22"
            y1="14.7237"
            x2="-194.479"
            y2="36.8713"
            gradientUnits="userSpaceOnUse"
        >
            <stop stop-color="white" />
            <stop offset="1" stop-color="white" />
        </linearGradient>
        <clipPath id="clip0_4_130">
            <rect width="667" height="769" fill="white" />
        </clipPath>
    </defs>
</svg>
