<svg
    width="1024"
    height="1078"
    viewBox="0 0 1024 1078"
    fill="none"
    xmlns="http://www.w3.org/2000/svg"
>
    <g clip-path="url(#clip0_7001_586)">
        <rect width="1024" height="1078" fill="#8F3FBA" />
        <path
            d="M2109.9 -106L2101.8 -35.4121C2118.53 -36.3669 2134.2 -37.7883 2149 -39.6143V61.0186C2119.3 64.2042 2038.13 93.2305 1965 100.5C1813.74 115.535 1669.75 85.6814 1579.31 48.1885C1494.17 12.8937 1402.59 -21.9999 1212.9 -22C1023.22 -22 931.636 12.8937 846.497 48.1885C756.056 85.6814 668.145 126 495.569 126C322.993 126 235.083 85.6814 144.642 48.1885C92.7426 26.6735 38.4491 5.30722 -39 -8.09668V-109.409C-27.2647 -107.61 -15.9791 -105.648 -5.09766 -103.544V-136L2109.9 -196V-106Z"
            fill="white"
        />
        <path
            d="M-34.9023 1102L-26.8018 1031.41C-43.5273 1032.37 -59.1988 1033.79 -74 1035.61V934.981C-44.3026 931.796 -11.6542 930 24.7646 930C197.341 930 285.251 970.319 375.692 1007.81C460.832 1043.11 552.413 1078 742.098 1078C931.782 1078 1023.36 1043.11 1108.5 1007.81C1198.94 970.319 1286.85 930 1459.43 930C1632.01 930 1719.92 970.319 1810.36 1007.81C1862.26 1029.33 1916.55 1050.69 1994 1064.1V1165.41C1982.26 1163.61 1970.98 1161.65 1960.1 1159.54V1192H-34.9023V1102Z"
            fill="white"
        />
        <path
            d="M2844.63 23.0829L2834.13 121.702C2853.16 120.615 2871 118.859 2887.86 116.524L2888.1 163.047C2854.28 167.063 2508.46 347.884 1958.17 259.85C1795.29 233.793 1713.54 170.309 1567.46 117.279C1412.04 60.8599 1361.02 44.9958 1145.39 42.1809C929.745 39.3661 714.521 106.419 617.087 154.526C513.585 205.63 412.91 260.723 216.719 258.162C20.5282 255.601 -78.6753 197.899 -180.808 144.111C-239.416 113.246 -300.748 82.5525 -388.55 62.6536L-386.701 -79.0635C-373.392 -76.3726 -360.598 -73.4602 -348.266 -70.3561L-347.674 -115.756L2846.27 -102.81L2844.63 23.0829Z"
            fill="white"
            fill-opacity="0.7"
        />
        <path
            d="M1729.45 1214.46L1729.46 1115.28C1748.27 1118.38 1765.82 1122.01 1782.33 1126.12L1787.49 1079.88C1754.29 1072.31 1429.64 855.889 873.234 885.163C708.545 893.828 620.542 948.299 469.696 985.564C309.21 1025.21 256.812 1035.58 42.1296 1015.55C-172.553 995.518 -379.423 906.054 -471.195 847.901C-568.682 786.126 -662.938 720.683 -858.257 702.456C-1053.58 684.23 -1158.31 731.105 -1265.55 773.776C-1327.08 798.263 -1391.31 822.289 -1480.71 832.78L-1493.87 973.896C-1480.36 972.629 -1467.33 971.088 -1454.74 969.307L-1458.96 1014.51L1717.76 1339.82L1729.45 1214.46Z"
            fill="white"
            fill-opacity="0.7"
        />
        <path
            d="M2398.87 1014.86L2388.22 874.827C2406.44 876.485 2423.53 879.084 2439.68 882.5L2439.62 816.47C2407.23 810.566 2075.2 551.835 1549.1 673.462C1393.38 709.462 1315.52 799.074 1176.05 873.459C1027.65 952.597 978.926 974.806 772.576 977.5C566.225 980.193 359.851 883.724 266.317 814.856C166.957 741.699 70.2781 662.896 -117.461 665.346C-305.2 667.797 -399.789 749.097 -497.205 824.823C-553.107 868.277 -611.617 911.47 -695.523 939.183L-692.897 1140.34C-680.178 1136.6 -667.951 1132.54 -656.168 1128.21L-655.327 1192.65L2401.2 1193.56L2398.87 1014.86Z"
            fill="white"
            fill-opacity="0.7"
        />
        <path
            d="M-79.3639 -19.5751L-70.7556 79.0686C-85.8852 77.9303 -100.072 76.1268 -113.479 73.7472L-113.538 120.268C-86.6474 124.374 188.696 306.115 625.843 219.558C755.233 193.938 820.044 130.675 936.01 78.0382C1059.39 22.0375 1099.89 6.31058 1271.28 4.07329C1442.67 1.83612 1613.91 69.4631 1691.48 117.83C1773.89 169.209 1854.05 224.57 2009.98 222.535C2165.91 220.499 2244.61 163.064 2325.64 109.552C2372.14 78.8444 2420.8 48.3166 2490.54 28.6536L2488.69 -113.064C2478.12 -110.408 2467.96 -107.53 2458.16 -104.459L2457.57 -149.859L-81.0073 -145.468L-79.3639 -19.5751Z"
            fill="url(#paint0_linear_7001_586)"
            fill-opacity="0.34"
        />
    </g>
    <defs>
        <linearGradient
            id="paint0_linear_7001_586"
            x1="2490.41"
            y1="18.6149"
            x2="-114.421"
            y2="52.6165"
            gradientUnits="userSpaceOnUse"
        >
            <stop stop-color="white" />
            <stop offset="1" stop-color="white" />
        </linearGradient>
        <clipPath id="clip0_7001_586">
            <rect width="1024" height="1078" fill="white" />
        </clipPath>
    </defs>
</svg>
